<?xml version="1.0" standalone="no"?>
<!DOCTYPE svg PUBLIC "-//W3C//DTD SVG 1.1//EN" "http://www.w3.org/Graphics/SVG/1.1/DTD/svg11.dtd" >
<svg xmlns="http://www.w3.org/2000/svg">
<metadata>
This is a custom SVG webfont generated by Typotheque.
</metadata>
<defs>
<font id="typotheque_webfonts_service" horiz-adv-x="659" >
<font-face units-per-em="1000" ascent="800" descent="-200" />
<missing-glyph horiz-adv-x="300" />
<glyph unicode="CT" horiz-adv-x="1206" d="M791 610h-370q-56 0 -98 -16.5t-70 -45t-42.5 -66.5t-14.5 -81q0 -44 14.5 -82.5t42.5 -67.5t69 -46t94 -17q68 0 119 14t76 29l34 -177q-39 -23 -99.5 -38.5t-128.5 -15.5q-93 0 -170 31.5t-131.5 86t-85 127.5t-30.5 156q0 82 30 155t85.5 127t134 85.5t176.5 31.5h815 v-190h-250v-610h-200v610z" />
<glyph unicode="&#xc7;T" horiz-adv-x="1206" d="M791 610h-370q-56 0 -98 -16.5t-70 -45t-42.5 -66.5t-14.5 -81q0 -44 14.5 -82.5t42.5 -67.5t69 -46t94 -17q68 0 119 14t76 29l34 -177q-24 -14 -56 -25.5t-69 -18.5q32 -15 55 -39.5t23 -62.5q0 -48 -34.5 -78t-101.5 -30h-44v114h25q17 0 29.5 9t12.5 26 q0 18 -19 31.5t-47 19.5h-2q-93 0 -170 31.5t-131.5 86t-85 127.5t-30.5 156q0 82 30 155t85.5 127t134 85.5t176.5 31.5h815v-190h-250v-610h-200v610z" />
<glyph unicode="ST" horiz-adv-x="1146" d="M731 610h-444q-47 0 -65.5 -15t-18.5 -35q0 -28 30.5 -42t77 -24.5l100 -23t100 -36.5t77 -65.5t30.5 -110.5q0 -51 -19.5 -98t-58.5 -82.5t-98 -56.5t-139 -21q-34 0 -72.5 5.5t-77 14.5t-75.5 21.5t-68 27.5l24 184q63 -30 131 -49t144 -19q66 0 88 14t22 42 q0 19 -17.5 30.5t-46.5 20.5t-65.5 16.5t-75 18.5t-75 27.5t-65.5 42.5t-46.5 64t-17.5 92q0 62 24 108.5t64.5 77t95 46t116.5 15.5h871v-190h-250v-610h-200v610z" />
<glyph unicode=" "  horiz-adv-x="300" />
<glyph unicode="&#x09;" horiz-adv-x="300" />
<glyph unicode="&#xa0;" horiz-adv-x="300" />
<glyph unicode="A" horiz-adv-x="768" d="M531 153h-293l-55 -153h-213l321 800h206l301 -800h-217zM304 336h168l-79 247z" />
<glyph unicode="B" horiz-adv-x="677" d="M30 800h337q84 0 142.5 -16t96 -44.5t54.5 -69t17 -89.5q0 -58 -22.5 -101.5t-73.5 -70.5q51 -27 73.5 -71t22.5 -104q0 -50 -17 -93t-54 -74.5t-95.5 -49t-142.5 -17.5h-338v800zM230 323v-143h144q28 0 46 6.5t29 17t15.5 23t4.5 25.5q0 12 -4.5 24.5t-15 23t-29 17 t-46.5 6.5h-144zM230 620v-143h144q27 0 45.5 6.5t29.5 16.5t15.5 22.5t4.5 24.5t-4.5 24.5t-15.5 23.5t-29.5 18t-45.5 7h-144z" />
<glyph unicode="C" horiz-adv-x="656" d="M645 54q-39 -23 -99.5 -38.5t-128.5 -15.5q-93 0 -170 31.5t-131.5 86t-85 127.5t-30.5 156q0 82 30 155t85.5 127t134 85.5t176.5 31.5q25 0 55.5 -2.5t60.5 -8t57 -13.5t47 -20l-49 -172q-11 7 -31.5 13.5t-45.5 10.5t-51 6.5t-48 2.5q-56 0 -96.5 -17.5t-66.5 -47.5 t-39 -69t-13 -82q0 -44 13 -83.5t39 -69.5t65.5 -47.5t92.5 -17.5q68 0 119 14t76 29z" />
<glyph unicode="D" horiz-adv-x="741" d="M30 800h303q83 0 157 -29.5t130 -82.5t88.5 -126.5t32.5 -161.5q0 -83 -32.5 -156t-88.5 -127t-130 -85.5t-157 -31.5h-303v800zM230 610v-420h103q54 0 93.5 18t65.5 47.5t39 67t13 77.5q0 41 -13.5 79t-40 67t-66 46.5t-91.5 17.5h-103z" />
<glyph unicode="E" d="M30 0v800h599v-190h-399v-115h329v-190h-329v-115h399v-190h-599z" />
<glyph unicode="F" horiz-adv-x="629" d="M230 305v-305h-200v800h599v-190h-399v-115h329v-190h-329z" />
<glyph unicode="G" horiz-adv-x="726" d="M377 495h319v-423q-17 -11 -43.5 -23.5t-61 -23.5t-76 -18t-89.5 -7q-98 0 -177 31.5t-134.5 86t-85 127.5t-29.5 157q0 82 29.5 154.5t85.5 126.5t137.5 85.5t186.5 31.5q39 0 77.5 -4.5t72 -12.5t61.5 -18t46 -22l-49 -177q-11 7 -36.5 15.5t-58 15t-67.5 11t-64 4.5 q-56 0 -98 -16.5t-70 -45.5t-42.5 -67.5t-14.5 -82.5t14 -82.5t42.5 -67t71 -45.5t98.5 -17q35 0 74 6v111h-119v190z" />
<glyph unicode="H" horiz-adv-x="860" d="M630 305h-400v-305h-200v800h200v-305h400v305h200v-800h-200v305z" />
<glyph unicode="I" horiz-adv-x="260" d="M30 800h200v-800h-200v800z" />
<glyph unicode="J" horiz-adv-x="484" d="M254 800h200v-450q0 -89 -23 -154.5t-74 -109t-131.5 -65t-195.5 -21.5v188q70 0 113.5 11t68 32t33.5 51t9 68v450z" />
<glyph unicode="K" horiz-adv-x="703" d="M30 800h200v-334l265 334h238l-330 -381l329 -419h-252l-250 336v-336h-200v800z" />
<glyph unicode="L" horiz-adv-x="619" d="M30 800h200v-610h359v-190h-559v800z" />
<glyph unicode="M" horiz-adv-x="1048" d="M230 389v-389h-200v800h200l283 -563l305 563h200v-800h-200v427l-227 -427h-166z" />
<glyph unicode="N" horiz-adv-x="860" d="M230 463v-463h-200v800h176l424 -495v495h200v-800h-200z" />
<glyph unicode="O" horiz-adv-x="800" d="M0 400q0 92 31.5 166t85.5 126t127 80t156 28t156 -28.5t127 -80.5t85.5 -126t31.5 -165q0 -92 -31.5 -166t-85.5 -126t-127 -80t-156 -28t-156 28.5t-127 81t-85.5 126t-31.5 164.5zM206 400q0 -53 14 -94t39.5 -69.5t61 -43.5t79.5 -15q43 0 79 15t61.5 43.5t39.5 69.5 t14 94q0 52 -14 93.5t-39.5 70t-61.5 43.5t-79 15q-87 0 -140.5 -57.5t-53.5 -164.5z" />
<glyph unicode="P" horiz-adv-x="677" d="M30 800h379q67 0 117.5 -22t84 -59.5t50 -87t16.5 -104.5q0 -66 -23 -118t-60.5 -88.5t-85.5 -56t-99 -19.5h-179v-245h-200v800zM230 610v-185h130q29 0 50 8t34.5 21.5t19.5 31t6 36.5q0 16 -6 31.5t-19.5 28t-34.5 20.5t-50 8h-130z" />
<glyph unicode="Q" horiz-adv-x="800" d="M0 400q0 92 31.5 166t85.5 126t127 80t156 28t156 -28.5t127 -80.5t85.5 -126t31.5 -165q0 -85 -26.5 -154t-73.5 -120l101 -126h-197l-29 36q-80 -36 -175 -36q-83 0 -156 28.5t-127 81t-85.5 126t-31.5 164.5zM206 400q0 -53 14 -94t39.5 -69.5t61 -43.5t79.5 -15 q31 0 55 7l-127 158h198l46 -58q22 50 22 115q0 52 -14 93.5t-39.5 70t-61.5 43.5t-79 15q-87 0 -140.5 -57.5t-53.5 -164.5z" />
<glyph unicode="R" horiz-adv-x="677" d="M30 800h379q67 0 117.5 -22t84 -59.5t50 -87t16.5 -104.5q0 -89 -40 -152.5t-100 -96.5l140 -278h-225l-111 245h-111v-245h-200v800zM230 610v-185h130q29 0 50 8t34.5 21.5t19.5 31t6 36.5q0 16 -6 31.5t-19.5 28t-34.5 20.5t-50 8h-130z" />
<glyph unicode="S" horiz-adv-x="628" d="M419 241q0 19 -17.5 30.5t-46.5 20.5t-65.5 16.5t-75 18.5t-75 27.5t-65.5 42.5t-46.5 64t-17.5 92q0 62 24 108.5t64.5 77t95 46t116.5 15.5q79 0 151 -20t130 -51l-35 -182q-51 26 -119 45.5t-140 19.5q-47 0 -70.5 -16t-23.5 -39q0 -26 30.5 -39.5t77 -24l100 -23 t100 -37t77 -66t30.5 -109.5q0 -51 -19.5 -98t-58.5 -82.5t-98 -56.5t-139 -21q-34 0 -72.5 5.5t-77 14.5t-75.5 21.5t-68 27.5l24 184q63 -30 131 -49t144 -19q66 0 88 14t22 42z" />
<glyph unicode="T" horiz-adv-x="630" d="M415 610v-610h-200v610h-250v190h700v-190h-250z" />
<glyph unicode="U" horiz-adv-x="820" d="M790 800v-400q0 -83 -28.5 -156t-79 -127t-120 -85.5t-152.5 -31.5t-152.5 24.5t-120 74.5t-79 125t-28.5 176v400h200v-400q0 -108 46 -160t134 -52q43 0 77 17t56.5 45.5t34.5 67t12 82.5v400h200z" />
<glyph unicode="V" horiz-adv-x="768" d="M378 234l212 566h208l-321 -800h-206l-301 800h220z" />
<glyph unicode="W" horiz-adv-x="1175" d="M360 237l131 321l-94 242h381l-94 -226l121 -337l202 563h198l-301 -800h-196l-127 325l-134 -325h-196l-281 800h217z" />
<glyph unicode="X" horiz-adv-x="768" d="M492 399l306 -399h-247l-167 248l-166 -248h-248l306 400l-306 400h248l166 -249l167 249h247z" />
<glyph unicode="Y" horiz-adv-x="768" d="M379 444l211 356h208l-324 -533v-267h-200v266l-304 534h227z" />
<glyph unicode="Z" d="M15 0v159l345 451h-345v190h626v-120l-365 -490h368v-190h-629z" />
<glyph unicode="0" horiz-adv-x="700" d="M20 400q0 90 19 164t59.5 126.5t102.5 81t149 28.5t149 -28.5t102.5 -81t59.5 -126.5t19 -164t-19 -164t-59.5 -126.5t-102.5 -81t-149 -28.5t-149 28.5t-102.5 81t-59.5 126.5t-19 164zM220 400q0 -44 5.5 -83t20 -68.5t39.5 -47t65 -17.5t65 17.5t39.5 47t20 68.5 t5.5 83q0 43 -4 82.5t-17.5 69t-39.5 47t-69 17.5q-40 0 -65 -17.5t-39.5 -47t-20 -69t-5.5 -82.5z" />
<glyph unicode="1" horiz-adv-x="564" d="M10 0v190h177v420h-177v190h377v-610h167v-190h-544z" />
<glyph unicode="2" horiz-adv-x="583" d="M10 0v190q12 43 43 78.5t70 66t81 56.5t76.5 49.5t57 45t22.5 42.5q0 42 -39 63t-102 21q-76 0 -165 -31l-44 170q45 22 104.5 36t123.5 14q70 0 131 -13.5t106 -42.5t71 -75.5t26 -112.5q0 -55 -17 -93t-45.5 -65.5t-65 -49l-75 -43.5t-76 -49.5t-67.5 -66.5h347v-190 h-563z" />
<glyph unicode="3" horiz-adv-x="591" d="M581 602q0 -61 -35 -112.5t-100 -79.5q27 -11 51 -26.5t42 -35.5t29 -46t11 -59q0 -66 -28.5 -112.5t-76.5 -75.5t-112 -42.5t-134 -13.5q-64 0 -123.5 14t-104.5 36l44 182q40 -20 95.5 -32t106.5 -12q25 0 47.5 3.5t39.5 11t26.5 19t9.5 27.5q0 44 -40 60.5t-112 16.5 h-21.5t-22.5 -1l-23 126q57 11 97 20.5t65.5 20.5t37 26.5t11.5 38.5q0 25 -32.5 36.5t-80.5 11.5q-48 1 -101 -8.5t-96 -28.5l-44 170q22 11 52 22.5t63 20.5t67.5 15t66.5 6q62 0 120.5 -11.5t104 -35.5t73 -61.5t27.5 -90.5z" />
<glyph unicode="4" horiz-adv-x="684" d="M595 120v-120h-200v120h-326l-59 168l262 512h233l-268 -490h158v166h200v-166h89v-190h-89z" />
<glyph unicode="5" horiz-adv-x="607" d="M380 253q0 30 -24 49.5t-68.5 31t-108.5 17.5t-144 11v438h536v-191h-343v-89q76 -3 141.5 -16.5t114 -42t76 -75t27.5 -116.5q0 -59 -21.5 -108.5t-63.5 -85.5t-104 -56t-144 -20q-62 0 -127 13t-127 42l24 184q54 -26 107.5 -40t118.5 -14q39 0 64.5 6t40 16t20 22 t5.5 24z" />
<glyph unicode="6" horiz-adv-x="676" d="M609 611q-41 3 -75 3q-62 0 -109 -9.5t-82 -27t-58.5 -41t-38.5 -51.5q38 19 79.5 30.5t84.5 11.5q53 0 99.5 -15t81.5 -46t55 -78t20 -110q0 -59 -25 -110t-69.5 -88.5t-104.5 -58.5t-130 -21q-78 0 -139 24t-103 68.5t-63.5 108t-21.5 142.5q0 112 41.5 197.5 t110.5 144t157.5 88.5t182.5 30q11 0 22.5 -0.5t22.5 -1.5zM326 370q-29 0 -57 -5t-52 -15q0 -83 31.5 -131.5t99.5 -48.5q25 0 45 8.5t33.5 22.5t20.5 32t7 36q0 27 -10.5 46.5t-28 31.5t-41 17.5t-48.5 5.5z" />
<glyph unicode="7" horiz-adv-x="605" d="M70 0q9 88 33.5 172t58 161t74 147t82.5 130h-318v190h605v-127q-37 -45 -84.5 -109.5t-92.5 -148.5t-79 -187.5t-44 -227.5h-235z" />
<glyph unicode="8" horiz-adv-x="665" d="M10 209q0 61 30 106.5t78 77.5q-44 28 -72 68t-28 101q0 58 27 103t72.5 76t105 46.5t123.5 15.5q65 0 120.5 -15.5t96.5 -42.5t64 -64.5t23 -81.5q0 -57 -29.5 -97.5t-75.5 -69.5q47 -28 78.5 -71t31.5 -108q0 -66 -32.5 -114.5t-82.5 -80t-111.5 -46.5t-118.5 -15 q-52 0 -105.5 12.5t-96.5 38.5t-70.5 66t-27.5 95zM450 234q0 19 -17 32.5t-44.5 25t-63.5 22l-74 22.5q-23 -17 -38.5 -39.5t-15.5 -42.5q0 -35 40 -60.5t107 -25.5q29 0 49.5 6.5t33 16.5t18 21.5t5.5 21.5zM220 588q0 -18 14.5 -31t38.5 -23.5t56 -20.5l67 -20 q61 36 61 78q0 34 -35.5 57t-93.5 23q-54 0 -81 -19.5t-27 -43.5z" />
<glyph unicode="9" horiz-adv-x="676" d="M67 189q40 -3 75 -3q61 0 108.5 9.5t82.5 27t58.5 41t38.5 51.5q-38 -20 -79.5 -31t-84.5 -11q-53 0 -99.5 15t-81.5 46t-55 78t-20 110q0 59 25 110t69.5 88.5t104.5 58.5t130 21q78 0 139 -24t103 -68.5t63.5 -108t21.5 -142.5q0 -112 -41.5 -197.5t-110.5 -144 t-157.5 -88.5t-182.5 -30q-11 0 -22.5 0.5t-22.5 1.5zM350 430q28 -1 56 4.5t53 15.5q-1 83 -32.5 131.5t-98.5 48.5q-25 0 -45 -8.5t-33.5 -22.5t-20.5 -32t-7 -36q0 -27 10.5 -46.5t28 -31.5t40.5 -17.5t49 -5.5z" />
<glyph unicode="&#xc0;" horiz-adv-x="768" d="M531 153h-293l-55 -153h-213l321 800h206l301 -800h-217zM310 828l-93 127h199l74 -127h-180zM304 336h168l-79 247z" />
<glyph unicode="&#xc7;" horiz-adv-x="656" d="M577 -90q0 -48 -34.5 -78t-101.5 -30h-44v114h25q17 0 29.5 9t12.5 26t-16.5 30t-41.5 19q-91 2 -165.5 34t-128 86t-83 126.5t-29.5 154.5t30 155t85.5 127t134 85.5t176.5 31.5q25 0 55.5 -2.5t60.5 -8t57 -13.5t47 -20l-49 -172q-11 7 -31.5 13.5t-45.5 10.5t-51 6.5 t-48 2.5q-56 0 -96.5 -17.5t-66.5 -47.5t-39 -69t-13 -82q0 -44 13 -83.5t39 -69.5t65.5 -47.5t92.5 -17.5q68 0 119 14t76 29l34 -172q-26 -15 -61 -27t-76 -19q29 -15 49 -39t20 -59z" />
<glyph unicode="&#xc8;" d="M30 0v800h599v-190h-399v-115h329v-190h-329v-115h399v-190h-599zM265 828l-93 127h199l74 -127h-180z" />
<glyph unicode="&#xc9;" d="M30 0v800h599v-190h-399v-115h329v-190h-329v-115h399v-190h-599zM230 828l74 127h199l-93 -127h-180z" />
<glyph unicode="&#xca;" d="M30 800h599v-190h-399v-115h329v-190h-329v-115h399v-190h-599v800zM464 955l113 -127h-199l-43 83l-42 -83h-199l113 127h257z" />
<glyph unicode="&#xcb;" d="M30 800h599v-190h-399v-115h329v-190h-329v-115h399v-190h-599v800zM360 957h139v-129h-139v129zM160 957h139v-129h-139v129z" />
<glyph unicode="&#xcf;" horiz-adv-x="260" d="M30 800h200v-800h-200v800zM-39 957h139v-129h-139v129zM161 957h139v-129h-139v129z" />
<glyph unicode="&#xd1;" horiz-adv-x="860" d="M230 463v-463h-200v800h176l424 -495v495h200v-800h-200zM368 852q-47 0 -87 -20v99q15 9 36.5 14.5t47.5 5.5q17 0 33 -4.5t31.5 -10.5t31 -10.5t31.5 -4.5q21 0 43.5 4t42.5 16v-99q-18 -12 -41 -16t-44 -4q-17 0 -32.5 4.5t-31.5 10.5t-31 10.5t-30 4.5z" />
<glyph unicode="&#xd4;" horiz-adv-x="800" d="M0 400q0 92 31.5 166t85.5 126t127 80t156 28t156 -28.5t127 -80.5t85.5 -126t31.5 -165q0 -92 -31.5 -166t-85.5 -126t-127 -80t-156 -28t-156 28.5t-127 81t-85.5 126t-31.5 164.5zM206 400q0 -53 14 -94t39.5 -69.5t61 -43.5t79.5 -15q43 0 79 15t61.5 43.5t39.5 69.5 t14 94q0 52 -14 93.5t-39.5 70t-61.5 43.5t-79 15q-87 0 -140.5 -57.5t-53.5 -164.5zM528 955l113 -127h-199l-43 83l-42 -83h-199l113 127h257z" />
<glyph unicode="&#xd6;" horiz-adv-x="800" d="M0 400q0 92 31.5 166t85.5 126t127 80t156 28t156 -28.5t127 -80.5t85.5 -126t31.5 -165q0 -92 -31.5 -166t-85.5 -126t-127 -80t-156 -28t-156 28.5t-127 81t-85.5 126t-31.5 164.5zM206 400q0 -53 14 -94t39.5 -69.5t61 -43.5t79.5 -15q43 0 79 15t61.5 43.5t39.5 69.5 t14 94q0 52 -14 93.5t-39.5 70t-61.5 43.5t-79 15q-87 0 -140.5 -57.5t-53.5 -164.5zM230 957h139v-129h-139v129zM430 957h139v-129h-139v129z" />
<glyph unicode="&#x152;" horiz-adv-x="1223" d="M594 0v50q-44 -24 -92.5 -37t-101.5 -13q-83 0 -156 31.5t-127 85.5t-85.5 127t-31.5 156t31.5 156t85.5 127t127 85.5t156 31.5q53 0 101.5 -13t92.5 -37v50h599v-190h-399v-115h329v-190h-329v-115h399v-190h-599zM196 400q0 -44 15.5 -82.5t43 -67t64.5 -45.5t81 -17 q43 0 80.5 17t65 45.5t43 67t15.5 82.5q0 43 -15.5 82t-43 67.5t-65 45.5t-80.5 17q-44 0 -81 -17t-64.5 -45.5t-43 -67.5t-15.5 -82z" />
<glyph unicode="&#xc6;" horiz-adv-x="1117" d="M401 800h686v-190h-399v-115h329v-190h-329v-115h399v-190h-599v155h-235l-80 -155h-213zM488 345v265l-137 -265h137z" />
<glyph unicode="&#x26;" horiz-adv-x="782" d="M763 321q-8 -38 -23.5 -71.5t-36.5 -62.5q20 -5 39.5 -9t39.5 -6l-2 -172q-60 0 -120 15.5t-118 42.5q-61 -29 -126.5 -43.5t-127.5 -14.5q-63 0 -116 15.5t-91 45.5t-59.5 74t-21.5 101q0 43 12 76t33 58t48.5 43t59.5 32q-26 64 -26 122q0 44 18 86t52 74.5t84 52.5 t114 20q57 0 103 -16t78.5 -45t50 -68.5t17.5 -87.5q0 -51 -19.5 -87t-51.5 -61t-73 -41.5t-84 -28.5q51 -55 121 -101q30 26 53 61t35 80zM312 565q0 -33 15 -70q28 7 52 14.5t41.5 16.5t27.5 21t10 28q0 37 -20.5 54t-49.5 17q-13 0 -26.5 -5t-24.5 -14.5t-18 -25 t-7 -36.5zM319 178q8 0 17 0.5t18 1.5q-34 29 -64 61t-56 66q-20 -11 -31.5 -25.5t-11.5 -34.5q0 -38 34.5 -53.5t93.5 -15.5z" />
<glyph unicode="," horiz-adv-x="329" d="M20 -140l50 329h199l-109 -329h-140z" />
<glyph unicode=";" horiz-adv-x="340" d="M71 586h209v-199h-209v199zM25 -140l50 329h199l-109 -329h-140z" />
<glyph unicode=":" horiz-adv-x="329" d="M60 199h209v-199h-209v199zM60 586h209v-199h-209v199z" />
<glyph unicode="." horiz-adv-x="329" d="M60 199h209v-199h-209v199z" />
<glyph unicode="-" horiz-adv-x="465" d="M50 305v190h365v-190h-365z" />
<glyph unicode="!" horiz-adv-x="269" d="M36 800h200v-530h-200v530zM30 199h209v-199h-209v199z" />
<glyph unicode="&#xa1;" horiz-adv-x="269" d="M36 530h200v-530h-200v530zM30 800h209v-199h-209v199z" />
<glyph unicode="?" horiz-adv-x="581" d="M110 422q139 18 203 49.5t64 78.5q0 32 -25.5 46t-66.5 16q-28 0 -61 -5t-66 -14t-65 -21t-58 -25l-35 182q60 32 130.5 51.5t154.5 19.5q61 0 115 -14t94 -43.5t63.5 -74.5t23.5 -106q0 -88 -41 -145t-106.5 -91t-147.5 -50.5t-164 -23.5zM120 199h209v-199h-209v199z " />
<glyph unicode="&#xbf;" horiz-adv-x="581" d="M471 378q-139 -18 -203 -49.5t-64 -78.5q0 -32 25.5 -46t66.5 -16q28 0 61 5t66 14t65 20.5t58 25.5l35 -182q-60 -32 -130.5 -51.5t-154.5 -19.5q-61 0 -115 14t-94 43.5t-63.5 74t-23.5 106.5q0 88 41 145t106.5 91t147.5 50.5t164 23.5zM461 601h-209v199h209v-199z " />
<glyph unicode="&#x2018;" horiz-adv-x="319" d="M289 800l-70 -329h-189l119 329h140z" />
<glyph unicode="&#x2019;" horiz-adv-x="319" d="M30 471l70 329h189l-119 -329h-140z" />
<glyph unicode="&#x201c;" horiz-adv-x="559" d="M289 800l-70 -329h-189l119 329h140zM529 800l-70 -329h-189l119 329h140z" />
<glyph unicode="&#x201d;" horiz-adv-x="559" d="M270 471l70 329h189l-119 -329h-140zM30 471l70 329h189l-119 -329h-140z" />
<glyph unicode="&#x2039;" horiz-adv-x="321" d="M210 414l100 -234h-174l-126 234l130 230h171z" />
<glyph unicode="&#x203a;" horiz-adv-x="321" d="M10 644h171l130 -230l-126 -234h-174l100 234z" />
<glyph unicode="&#xab;" horiz-adv-x="579" d="M210 414l100 -234h-174l-126 234l130 230h171zM468 414l100 -234h-174l-126 234l130 230h171z" />
<glyph unicode="&#xbb;" horiz-adv-x="579" d="M10 644h171l130 -230l-126 -234h-174l100 234zM268 644h171l130 -230l-126 -234h-174l100 234z" />
<glyph unicode="/" horiz-adv-x="588" d="M388 800h200l-388 -800h-200z" />
<glyph unicode="|" horiz-adv-x="300" d="M50 800h200v-800h-200v800z" />
<glyph unicode="&#x2013;" horiz-adv-x="500" d="M50 325v150h399v-150h-399z" />
<glyph unicode="&#x2014;" horiz-adv-x="1000" d="M50 325v150h901v-150h-901z" />
<glyph unicode="&#x2022;" horiz-adv-x="426" d="M60 549h306v-292h-306v292z" />
<glyph unicode="(" horiz-adv-x="367" d="M355 681q-70 -47 -108 -120t-38 -158q0 -89 41 -160.5t107 -121.5l-114 -124q-48 30 -89.5 72.5t-72 94.5t-48.5 112.5t-18 126.5q0 75 20.5 137t53 111.5t72.5 86.5t80 62z" />
<glyph unicode=")" horiz-adv-x="367" d="M126 800q40 -25 80 -62t72.5 -86.5t53 -111.5t20.5 -137q0 -66 -18 -126.5t-48.5 -112.5t-72 -94.5t-89.5 -72.5l-114 124q66 50 107 121.5t41 160.5q0 85 -38 158t-108 120z" />
<glyph unicode="[" horiz-adv-x="356" d="M60 -1v803h276v-179h-75v-445h75v-179h-276z" />
<glyph unicode="]" horiz-adv-x="356" d="M20 -1v179h75v445h-75v179h276v-803h-276z" />
<glyph unicode="{" horiz-adv-x="366" d="M294 0q-52 0 -93.5 8t-71 29t-45 57t-15.5 92v72q0 20 -6 31.5t-16 17.5t-22.5 8t-24.5 2v175q12 0 24.5 3.5t22.5 10.5t16.5 18t6.5 27v65q0 52 15.5 87.5t44 57.5t69.5 31.5t93 9.5h62v-184h-20q-32 0 -47.5 -11t-15.5 -37v-74q0 -23 -8.5 -40t-18.5 -29 q-11 -14 -26 -24q7 -4 16.5 -10t17.5 -16.5t13.5 -26t5.5 -37.5v-81q0 -48 65 -48h20v-184h-62z" />
<glyph unicode="}" horiz-adv-x="366" d="M10 0v184h20q65 0 65 48v81q0 22 5.5 37.5t13.5 26t17 16.5t17 10q-16 10 -27 24q-10 12 -18 29t-8 40v74q0 26 -15.5 37t-47.5 11h-20v184h62q52 0 93 -9.5t69.5 -31.5t44 -57.5t15.5 -87.5v-65q0 -16 6.5 -27t16.5 -18t22.5 -10.5t24.5 -3.5v-175q-12 0 -24.5 -2 t-22.5 -8t-16 -17.5t-6 -31.5v-72q0 -56 -16 -92t-45 -57t-70.5 -29t-93.5 -8h-62z" />
<glyph unicode="*" horiz-adv-x="506" d="M361 530l77 -101l-102 -74l-81 97l-83 -96l-102 74l81 99l-121 43l39 120l116 -34l-5 118h138l-3 -115l123 31l38 -120z" />
<glyph unicode="&#x2020;" horiz-adv-x="736" d="M30 600h234v200h200v-200h242v-168h-242v-432h-200v432h-234v168z" />
<glyph unicode="&#xa7;" horiz-adv-x="593" d="M30 389q0 35 14 60t38 43q-23 20 -37.5 49t-14.5 71q0 45 23 80t62 59.5t89 37t104 12.5q28 0 60 -4t63.5 -11t60.5 -16.5t50 -20.5l-26 -162q-18 10 -44.5 18.5t-56.5 15t-60.5 10t-55.5 3.5q-60 0 -84 -8t-24 -24q0 -12 27.5 -16t69 -8t89.5 -11.5t89.5 -25.5t69 -49.5 t27.5 -84.5q0 -35 -12 -64t-37 -50q22 -19 35 -44.5t13 -61.5q0 -47 -20 -82.5t-56 -58.5t-85.5 -34.5t-107.5 -11.5q-86 0 -151.5 14.5t-111.5 36.5l18 153q23 -11 54.5 -20.5t66 -16.5t68.5 -10.5t61 -3.5q48 0 73.5 8t25.5 21q0 10 -27 13.5t-68 8t-88.5 13.5t-88.5 29 t-68 54t-27 89zM190 409q0 -15 16.5 -23t43 -14t60.5 -11t70 -12q17 11 17 27q0 14 -17 22t-44.5 13.5t-62 11t-70.5 14.5q-8 -8 -10.5 -15t-2.5 -13z" />
<glyph unicode="\" horiz-adv-x="588" d="M588 0h-200l-388 800h200z" />
<glyph unicode="_" horiz-adv-x="500" d="M50 -151v150h399v-150h-399z" />
<glyph unicode="'" horiz-adv-x="244" d="M209 455h-175l-14 345h204z" />
<glyph unicode="&#x22;" horiz-adv-x="494" d="M209 455h-175l-14 345h204zM459 455h-175l-14 345h204z" />
<glyph unicode="@" horiz-adv-x="700" d="M631 58q-58 -32 -120.5 -45t-128.5 -13q-83 0 -149.5 24.5t-113.5 74.5t-72.5 125t-25.5 177q0 86 21 159t64 126.5t109 83.5t156 30q76 0 134.5 -22.5t98.5 -63.5t60.5 -99t20.5 -128q0 -55 -15 -103.5t-44.5 -85t-72.5 -57.5t-98 -21q-97 0 -154 45.5t-57 132.5 q0 43 13.5 78.5t38 60t58 38t73.5 13.5q38 0 81 -17q-30 74 -130 74q-91 0 -140 -64t-49 -178q0 -75 21 -121.5t54.5 -72.5t74.5 -35t81 -9q64 0 114.5 15t80.5 34zM456 359q29 0 47 24t20 83q-18 11 -35.5 12.5t-31.5 1.5q-26 0 -41.5 -15t-15.5 -44q0 -62 57 -62z" />
<glyph unicode="&#xa9;" horiz-adv-x="821" d="M562 277q-17 -11 -53 -20.5t-84 -9.5q-37 0 -66 11.5t-48.5 32t-29.5 47.5t-10 58q0 30 10 56.5t30 47t49.5 32t68.5 11.5q15 0 33.5 -1.5t35.5 -4.5t31.5 -7.5t22.5 -9.5l34 124q-14 8 -33 14t-40 9.5t-42 5.5t-39 2q-68 0 -123 -22t-94 -60t-60 -88.5t-21 -108.5 q0 -59 21 -110t59.5 -89t92.5 -60t119 -22q48 0 90 10.5t69 27.5zM10 395q0 83 31.5 156t85.5 127.5t127 86t156 31.5t156 -31.5t127.5 -86t86 -127.5t31.5 -156t-31.5 -156t-86 -127t-127.5 -85.5t-156 -31.5t-156 31.5t-127 85.5t-85.5 127t-31.5 156z" />
<glyph unicode="&#xae;" horiz-adv-x="821" d="M10 395q0 83 31.5 156t85.5 127.5t127 86t156 31.5t156 -31.5t127.5 -86t86 -127.5t31.5 -156t-31.5 -156t-86 -127t-127.5 -85.5t-156 -31.5t-156 31.5t-127 85.5t-85.5 127t-31.5 156zM204 120h140v171h78l77 -171h158l-98 195q42 23 70 67t28 107q0 38 -11.5 72.5 t-35 61t-59 42t-82.5 15.5h-265v-560zM435 547q42 0 59.5 -18t17.5 -40q0 -27 -17.5 -46t-59.5 -19h-91v123h91z" />
<glyph unicode="&#x2122;" horiz-adv-x="1290" d="M688 513v-272h-150v560h150l198 -381l214 381h150v-560h-150v299l-159 -299h-116zM336 658v-417h-151v417h-175v143h501v-143h-175z" />
<glyph unicode="&#x20ac;" horiz-adv-x="656" d="M216 305q24 -52 74.5 -84.5t125.5 -32.5q68 0 119 14t76 29l34 -177q-39 -23 -99.5 -38.5t-128.5 -15.5q-93 0 -170 31.5t-131.5 86t-85 127.5t-30.5 156q0 82 30 155t85.5 127t134 85.5t176.5 31.5q25 0 55.5 -2.5t60.5 -8t57 -13.5t47 -20l-49 -177q-11 7 -31.5 13.5 t-45.5 10.5t-51 6.5t-48 2.5q-79 0 -130.5 -32.5t-75.5 -84.5h344v-190h-343z" />
<glyph unicode="$" horiz-adv-x="628" d="M247 43q-60 7 -123 24.5t-114 41.5l19 171q50 -24 104 -42.5t114 -26.5v122q-43 5 -85.5 15t-76 30.5t-54.5 55t-21 88.5t18 95t50 69.5t75 46t94 23.5v44h130v-44q60 -8 114 -25.5t100 -41.5l-34 -163q-42 22 -87 35.5t-93 20.5v-115q43 -5 86 -14t77 -28.5t55.5 -52 t21.5 -84.5q0 -45 -14.5 -85.5t-44.5 -72.5t-75 -54t-106 -31v-45h-130v43zM184 527q0 -19 17 -29t46 -16v103q-30 -8 -46.5 -24.5t-16.5 -33.5zM433 276q0 17 -15 27t-41 15v-103q56 16 56 61z" />
<glyph unicode="&#xa2;" horiz-adv-x="626" d="M323 49q-73 11 -132.5 42.5t-102 78t-65.5 105t-23 124.5q0 64 22.5 122t64 104t101.5 77.5t135 43.5v54h130v-50q21 -2 44 -5t44.5 -7.5t40.5 -10.5t34 -14l-47 -157q-14 10 -47.5 17t-68.5 10v-370q45 5 78 15t52 20l32 -156q-29 -17 -71.5 -28.5t-90.5 -16.5v-47h-130 v49zM190 399q0 -63 33.5 -112t99.5 -68v357q-67 -20 -100 -68t-33 -109z" />
<glyph unicode="&#xa3;" horiz-adv-x="619" d="M30 0v474q0 78 29 138.5t77 102t110.5 63.5t129.5 22q33 0 68 -5.5t69 -17t63.5 -29t51.5 -41.5l-72 -158q-51 41 -94 53t-79 12q-30 0 -55 -6t-44.5 -19.5t-32.5 -36.5t-18 -57h234v-190h-237v-115h359v-190h-559z" />
<glyph unicode="&#xa5;" horiz-adv-x="828" d="M409 444l211 356h208l-186 -305h156v-190h-271l-23 -38v-77h294v-190h-768v190h274v75l-23 40h-252v190h144l-173 305h227z" />
<glyph unicode="#" horiz-adv-x="799" d="M474 116h-149v-116h-200v116h-105v190h105v189h-105v190h105v115h200v-115h149v115h200v-115h105v-190h-105v-189h105v-190h-105v-116h-200v116zM325 306h149v189h-149v-189z" />
<glyph unicode="%" horiz-adv-x="1148" d="M196 538q0 -57 15.5 -84t55.5 -27q35 0 53 27t18 84t-14 84t-57 27q-38 0 -54.5 -27t-16.5 -84zM10 538q0 59 15 107.5t46 83t79.5 53t116.5 18.5q67 0 116 -18.5t80 -53t46 -83t15 -107.5t-15 -107.5t-46 -83t-80 -53t-116 -18.5q-68 0 -116.5 18.5t-79.5 53t-46 83 t-15 107.5zM353 235h230l-233 -235h-230zM800 801h230l-233 -235h-230zM810 262q0 -57 15.5 -84t55.5 -27q35 0 53 27t18 84t-14 84t-57 27q-38 0 -54.5 -27t-16.5 -84zM624 262q0 59 15 107.5t46 83t79.5 53t116.5 18.5q67 0 116 -18.5t80 -53t46 -83t15 -107.5t-15 -107.5 t-46 -83t-80 -53t-116 -18.5q-68 0 -116.5 18.5t-79.5 53t-46 83t-15 107.5z" />
<glyph unicode="&#x2030;" horiz-adv-x="1681" d="M196 538q0 -57 15.5 -84t55.5 -27q35 0 53 27t18 84t-14 84t-57 27q-38 0 -54.5 -27t-16.5 -84zM10 538q0 59 15 107.5t46 83t79.5 53t116.5 18.5q67 0 116 -18.5t80 -53t46 -83t15 -107.5t-15 -107.5t-46 -83t-80 -53t-116 -18.5q-68 0 -116.5 18.5t-79.5 53t-46 83 t-15 107.5zM353 235h230l-233 -235h-230zM800 801h230l-233 -235h-230zM810 262q0 -57 15.5 -84t55.5 -27q35 0 53 27t18 84t-14 84t-57 27q-38 0 -54.5 -27t-16.5 -84zM624 262q0 59 15 107.5t46 83t79.5 53t116.5 18.5q67 0 116 -18.5t80 -53t46 -83t15 -107.5t-15 -107.5 t-46 -83t-80 -53t-116 -18.5q-68 0 -116.5 18.5t-79.5 53t-46 83t-15 107.5zM1343 264q0 -57 15.5 -84t55.5 -27q35 0 53 27t18 84t-14 84t-57 27q-38 0 -54.5 -27t-16.5 -84zM1157 264q0 59 15 107.5t46 83t79.5 53t116.5 18.5q67 0 116 -18.5t80 -53t46 -83t15 -107.5 t-15 -107.5t-46 -83t-80 -53t-116 -18.5q-68 0 -116.5 18.5t-79.5 53t-46 83t-15 107.5z" />
<glyph unicode="+" horiz-adv-x="500" d="M327 475h122v-150h-122v-127h-150v127h-127v150h127v122h150v-122z" />
<glyph unicode="=" horiz-adv-x="500" d="M50 205v150h399v-150h-399zM50 435v150h399v-150h-399z" />
<glyph unicode="&#x3c;" horiz-adv-x="493" d="M463 516l-265 -123l265 -118v-201l-433 206v227l433 214v-205z" />
<glyph unicode="&#x3e;" horiz-adv-x="493" d="M30 721l433 -214v-227l-433 -206v201l265 118l-265 123v205z" />
<glyph unicode="a" horiz-adv-x="768" d="M531 153h-293l-55 -153h-213l321 800h206l301 -800h-217zM304 336h168l-79 247z" />
<glyph unicode="b" horiz-adv-x="677" d="M30 800h337q84 0 142.5 -16t96 -44.5t54.5 -69t17 -89.5q0 -58 -22.5 -101.5t-73.5 -70.5q51 -27 73.5 -71t22.5 -104q0 -50 -17 -93t-54 -74.5t-95.5 -49t-142.5 -17.5h-338v800zM230 310v-125h144q55 0 75 18t20 44q0 12 -4.5 23.5t-15 20t-29 14t-46.5 5.5h-144z M230 615v-125h144q55 0 75 17.5t20 42.5q0 12 -4.5 23.5t-15.5 20.5t-29.5 15t-45.5 6h-144z" />
<glyph unicode="c" horiz-adv-x="656" d="M645 54q-39 -23 -99.5 -38.5t-128.5 -15.5q-93 0 -170 31.5t-131.5 86t-85 127.5t-30.5 156q0 82 30 155t85.5 127t134 85.5t176.5 31.5q25 0 55.5 -2.5t60.5 -8t57 -13.5t47 -20l-49 -177q-11 7 -31.5 13.5t-45.5 10.5t-51 6.5t-48 2.5q-56 0 -98 -17t-70 -45.5 t-42.5 -67t-14.5 -81.5q0 -44 14.5 -82.5t42.5 -67.5t69 -46t94 -17q68 0 119 14t76 29z" />
<glyph unicode="d" horiz-adv-x="741" d="M30 800h303q83 0 157 -29.5t130 -82.5t88.5 -126.5t32.5 -161.5q0 -83 -32.5 -156t-88.5 -127t-130 -85.5t-157 -31.5h-303v800zM230 610v-420h103q54 0 93.5 18t65.5 47.5t39 67t13 77.5q0 41 -13.5 79t-40 67t-66 46.5t-91.5 17.5h-103z" />
<glyph unicode="e" d="M30 0v800h599v-190h-399v-115h329v-190h-329v-115h399v-190h-599z" />
<glyph unicode="f" horiz-adv-x="629" d="M230 305v-305h-200v800h599v-190h-399v-115h329v-190h-329z" />
<glyph unicode="g" horiz-adv-x="726" d="M377 495h319v-423q-17 -11 -43.5 -23.5t-61 -23.5t-76 -18t-89.5 -7q-98 0 -177 31.5t-134.5 86t-85 127.5t-29.5 157q0 82 29.5 154.5t85.5 126.5t137.5 85.5t186.5 31.5q39 0 77.5 -4.5t72 -12.5t61.5 -18t46 -22l-49 -177q-11 7 -36.5 15.5t-58 15t-67.5 11t-64 4.5 q-56 0 -98 -16.5t-70 -45.5t-42.5 -67.5t-14.5 -82.5t14 -82.5t42.5 -67t71 -45.5t98.5 -17q35 0 74 6v111h-119v190z" />
<glyph unicode="h" horiz-adv-x="860" d="M630 305h-400v-305h-200v800h200v-305h400v305h200v-800h-200v305z" />
<glyph unicode="i" horiz-adv-x="260" d="M30 800h200v-800h-200v800z" />
<glyph unicode="j" horiz-adv-x="484" d="M254 800h200v-450q0 -89 -23 -154.5t-74 -109t-131.5 -65t-195.5 -21.5v188q70 0 113.5 11t68 32t33.5 51t9 68v450z" />
<glyph unicode="k" horiz-adv-x="703" d="M30 800h200v-334l265 334h238l-330 -381l329 -419h-252l-250 336v-336h-200v800z" />
<glyph unicode="l" horiz-adv-x="619" d="M30 800h200v-610h359v-190h-559v800z" />
<glyph unicode="m" horiz-adv-x="1048" d="M230 389v-389h-200v800h200l283 -563l305 563h200v-800h-200v427l-227 -427h-166z" />
<glyph unicode="n" horiz-adv-x="860" d="M230 463v-463h-200v800h176l424 -495v495h200v-800h-200z" />
<glyph unicode="o" horiz-adv-x="800" d="M0 400q0 92 31.5 166t85.5 126t127 80t156 28t156 -28.5t127 -80.5t85.5 -126t31.5 -165q0 -92 -31.5 -166t-85.5 -126t-127 -80t-156 -28t-156 28.5t-127 81t-85.5 126t-31.5 164.5zM206 400q0 -53 14 -94t39.5 -69.5t61 -43.5t79.5 -15q43 0 79 15t61.5 43.5t39.5 69.5 t14 94q0 52 -14 93.5t-39.5 70t-61.5 43.5t-79 15q-87 0 -140.5 -57.5t-53.5 -164.5z" />
<glyph unicode="p" horiz-adv-x="677" d="M30 800h379q67 0 117.5 -22t84 -59.5t50 -87t16.5 -104.5q0 -66 -23 -118t-60.5 -88.5t-85.5 -56t-99 -19.5h-179v-245h-200v800zM230 610v-185h130q29 0 50 8t34.5 21.5t19.5 31t6 36.5q0 16 -6 31.5t-19.5 28t-34.5 20.5t-50 8h-130z" />
<glyph unicode="q" horiz-adv-x="800" d="M0 400q0 92 31.5 166t85.5 126t127 80t156 28t156 -28.5t127 -80.5t85.5 -126t31.5 -165q0 -85 -26.5 -154t-73.5 -120l101 -126h-197l-29 36q-80 -36 -175 -36q-83 0 -156 28.5t-127 81t-85.5 126t-31.5 164.5zM206 400q0 -53 14 -94t39.5 -69.5t61 -43.5t79.5 -15 q31 0 55 7l-127 158h198l46 -58q22 50 22 115q0 52 -14 93.5t-39.5 70t-61.5 43.5t-79 15q-87 0 -140.5 -57.5t-53.5 -164.5z" />
<glyph unicode="r" horiz-adv-x="677" d="M30 800h379q67 0 117.5 -22t84 -59.5t50 -87t16.5 -104.5q0 -89 -40 -152.5t-100 -96.5l140 -278h-225l-111 245h-111v-245h-200v800zM230 610v-185h130q29 0 50 8t34.5 21.5t19.5 31t6 36.5q0 16 -6 31.5t-19.5 28t-34.5 20.5t-50 8h-130z" />
<glyph unicode="s" horiz-adv-x="628" d="M419 241q0 19 -17.5 30.5t-46.5 20.5t-65.5 16.5t-75 18.5t-75 27.5t-65.5 42.5t-46.5 64t-17.5 92q0 62 24 108.5t64.5 77t95 46t116.5 15.5q79 0 151 -20t130 -51l-35 -182q-51 26 -119 45.5t-140 19.5q-47 0 -70.5 -16t-23.5 -39q0 -26 30.5 -39.5t77 -24l100 -23 t100 -37t77 -66t30.5 -109.5q0 -51 -19.5 -98t-58.5 -82.5t-98 -56.5t-139 -21q-34 0 -72.5 5.5t-77 14.5t-75.5 21.5t-68 27.5l24 184q63 -30 131 -49t144 -19q66 0 88 14t22 42z" />
<glyph unicode="t" horiz-adv-x="630" d="M415 610v-610h-200v610h-250v190h700v-190h-250z" />
<glyph unicode="u" horiz-adv-x="820" d="M790 800v-400q0 -83 -28.5 -156t-79 -127t-120 -85.5t-152.5 -31.5t-152.5 24.5t-120 74.5t-79 125t-28.5 176v400h200v-400q0 -108 46 -160t134 -52q43 0 77 17t56.5 45.5t34.5 67t12 82.5v400h200z" />
<glyph unicode="v" horiz-adv-x="768" d="M378 247l212 553h208l-321 -800h-206l-301 800h217z" />
<glyph unicode="w" horiz-adv-x="1175" d="M361 256l125 297l-99 247h401l-99 -231l116 -313l202 544h198l-301 -800h-196l-127 315l-134 -315h-196l-281 800h217z" />
<glyph unicode="x" horiz-adv-x="768" d="M492 399l306 -399h-247l-167 248l-166 -248h-248l306 400l-306 400h248l166 -249l167 249h247z" />
<glyph unicode="y" horiz-adv-x="768" d="M379 444l211 356h208l-324 -533v-267h-200v266l-304 534h227z" />
<glyph unicode="z" d="M15 0v159l345 451h-345v190h626v-120l-365 -490h368v-190h-629z" />
<glyph unicode="&#xe0;" horiz-adv-x="768" d="M531 153h-293l-55 -153h-213l321 800h206l301 -800h-217zM310 828l-93 127h199l74 -127h-180zM304 336h168l-79 247z" />
<glyph unicode="&#xe7;" horiz-adv-x="656" d="M577 -90q0 -48 -34.5 -78t-101.5 -30h-44v114h25q17 0 29.5 9t12.5 26t-16.5 30t-41.5 19q-91 2 -165.5 34t-128 86t-83 126.5t-29.5 154.5t30 155t85.5 127t134 85.5t176.5 31.5q25 0 55.5 -2.5t60.5 -8t57 -13.5t47 -20l-49 -172q-11 7 -31.5 13.5t-45.5 10.5t-51 6.5 t-48 2.5q-56 0 -96.5 -17.5t-66.5 -47.5t-39 -69t-13 -82q0 -44 13 -83.5t39 -69.5t65.5 -47.5t92.5 -17.5q68 0 119 14t76 29l34 -172q-26 -15 -61 -27t-76 -19q29 -15 49 -39t20 -59z" />
<glyph unicode="&#xe8;" d="M30 0v800h599v-190h-399v-115h329v-190h-329v-115h399v-190h-599zM265 828l-93 127h199l74 -127h-180z" />
<glyph unicode="&#xe9;" d="M30 0v800h599v-190h-399v-115h329v-190h-329v-115h399v-190h-599zM230 828l74 127h199l-93 -127h-180z" />
<glyph unicode="&#xea;" d="M30 800h599v-190h-399v-115h329v-190h-329v-115h399v-190h-599v800zM464 955l113 -127h-199l-43 83l-42 -83h-199l113 127h257z" />
<glyph unicode="&#xeb;" d="M30 800h599v-190h-399v-115h329v-190h-329v-115h399v-190h-599v800zM360 957h139v-129h-139v129zM160 957h139v-129h-139v129z" />
<glyph unicode="&#xef;" horiz-adv-x="260" d="M30 800h200v-800h-200v800zM-39 957h139v-129h-139v129zM161 957h139v-129h-139v129z" />
<glyph unicode="&#xf1;" horiz-adv-x="860" d="M230 463v-463h-200v800h176l424 -495v495h200v-800h-200zM368 852q-47 0 -87 -20v99q15 9 36.5 14.5t47.5 5.5q17 0 33 -4.5t31.5 -10.5t31 -10.5t31.5 -4.5q21 0 43.5 4t42.5 16v-99q-18 -12 -41 -16t-44 -4q-17 0 -32.5 4.5t-31.5 10.5t-31 10.5t-30 4.5z" />
<glyph unicode="&#xf4;" horiz-adv-x="800" d="M0 400q0 92 31.5 166t85.5 126t127 80t156 28t156 -28.5t127 -80.5t85.5 -126t31.5 -165q0 -92 -31.5 -166t-85.5 -126t-127 -80t-156 -28t-156 28.5t-127 81t-85.5 126t-31.5 164.5zM206 400q0 -53 14 -94t39.5 -69.5t61 -43.5t79.5 -15q43 0 79 15t61.5 43.5t39.5 69.5 t14 94q0 52 -14 93.5t-39.5 70t-61.5 43.5t-79 15q-87 0 -140.5 -57.5t-53.5 -164.5zM528 955l113 -127h-199l-43 83l-42 -83h-199l113 127h257z" />
<glyph unicode="&#xf6;" horiz-adv-x="800" d="M0 400q0 92 31.5 166t85.5 126t127 80t156 28t156 -28.5t127 -80.5t85.5 -126t31.5 -165q0 -92 -31.5 -166t-85.5 -126t-127 -80t-156 -28t-156 28.5t-127 81t-85.5 126t-31.5 164.5zM206 400q0 -53 14 -94t39.5 -69.5t61 -43.5t79.5 -15q43 0 79 15t61.5 43.5t39.5 69.5 t14 94q0 52 -14 93.5t-39.5 70t-61.5 43.5t-79 15q-87 0 -140.5 -57.5t-53.5 -164.5zM230 957h139v-129h-139v129zM430 957h139v-129h-139v129z" />
<glyph unicode="&#x153;" horiz-adv-x="1223" d="M594 0v50q-44 -24 -92.5 -37t-101.5 -13q-83 0 -156 31.5t-127 85.5t-85.5 127t-31.5 156t31.5 156t85.5 127t127 85.5t156 31.5q53 0 101.5 -13t92.5 -37v50h599v-190h-399v-115h329v-190h-329v-115h399v-190h-599zM196 400q0 -44 15.5 -82.5t43 -67t64.5 -45.5t81 -17 q43 0 80.5 17t65 45.5t43 67t15.5 82.5q0 43 -15.5 82t-43 67.5t-65 45.5t-80.5 17q-44 0 -81 -17t-64.5 -45.5t-43 -67.5t-15.5 -82z" />
<glyph unicode="&#xe6;" horiz-adv-x="1117" d="M401 800h686v-190h-399v-115h329v-190h-329v-115h399v-190h-599v155h-235l-80 -155h-213zM488 345v265l-137 -265h137z" />
</font>
</defs>
</svg>
