<?xml version="1.0" standalone="no"?>
<!DOCTYPE svg PUBLIC "-//W3C//DTD SVG 1.1//EN" "http://www.w3.org/Graphics/SVG/1.1/DTD/svg11.dtd" >
<svg xmlns="http://www.w3.org/2000/svg">
<metadata>
This is a custom SVG webfont generated by Typotheque.
</metadata>
<defs>
<font id="typotheque_webfonts_service" horiz-adv-x="573" >
<font-face units-per-em="1000" ascent="800" descent="-200" />
<missing-glyph horiz-adv-x="245" />
<glyph unicode=" "  horiz-adv-x="245" />
<glyph unicode="&#x09;" horiz-adv-x="245" />
<glyph unicode="&#xa0;" horiz-adv-x="245" />
<glyph unicode="," horiz-adv-x="410" d="M294 26q0 -28 -13 -59t-33 -61t-45 -55t-50 -41l-37 33l22 24t23.5 27.5t19.5 30.5t10 32q-10 6 -22 17.5t-22.5 23.5t-17.5 22.5t-7 15.5q0 7 11 21.5t25 29t28.5 25t20.5 10.5q8 0 22.5 -11t29 -26t25 -31.5t10.5 -27.5z" />
<glyph unicode="." horiz-adv-x="400" d="M285 33q0 -6 -11 -20t-25 -29t-28.5 -26t-21.5 -11t-21 11t-28.5 25.5t-25 28.5t-10.5 21t11 21t25 28.5t28.5 25t20.5 10.5q7 0 21 -11t28.5 -25t25.5 -28t11 -21z" />
<glyph unicode=":" horiz-adv-x="410" d="M285 461q0 -6 -11 -20.5t-25 -29t-28.5 -26t-21.5 -11.5t-21 11t-28.5 25.5t-25 29t-10.5 21.5t11 21t25 28t28.5 24.5t20.5 10.5q7 0 21 -10.5t28.5 -24.5t25.5 -28t11 -21zM285 33q0 -6 -11 -20t-25 -29t-28.5 -26t-21.5 -11t-21 11t-28.5 25.5t-25 28.5t-10.5 21 t11 21t25 28.5t28.5 25t20.5 10.5q7 0 21 -11t28.5 -25t25.5 -28t11 -21z" />
<glyph unicode=";" horiz-adv-x="410" d="M283 460q0 -6 -11 -20.5t-25 -29t-28.5 -26t-21.5 -11.5q-6 0 -20.5 11t-28.5 25.5t-25 29t-11 21.5t11 21t25 28t28.5 24.5t20.5 10.5q7 0 21 -10.5t28.5 -24.5t25.5 -28t11 -21zM295 26q0 -28 -13 -59t-33.5 -61t-45.5 -55t-50 -41l-37 33l22 24t23 27.5t19 30.5t10 32 q-9 6 -21 17.5t-22.5 23.5t-17.5 22.5t-7 15.5q0 7 11 21.5t25 29t28.5 25t20.5 10.5q8 0 23 -11t29.5 -26t25 -31.5t10.5 -27.5z" />
<glyph unicode="?" horiz-adv-x="450" d="M404 437q0 -18 -12 -36.5t-30 -37t-38.5 -37l-39 -34.5t-31 -30.5t-13.5 -24.5q-1 -12 4 -24t5 -14l-80 -29q-2 1 -5.5 7.5t-7 14.5t-6.5 17.5t-3 17.5q0 17 12.5 35t30.5 37t40 37l40 34t30.5 30t12.5 24q0 14 -25 30t-76 16q-19 0 -33.5 -2.5t-28.5 -6.5t-29.5 -9.5 l-35.5 -12.5q-16 30 -16 50q0 22 11 35.5t28.5 21t38.5 10t41 2.5q42 0 81 -9.5t69 -26t48 -38.5t18 -47zM302 33q0 -6 -10.5 -19.5t-24.5 -27.5t-28 -25t-21 -11q-6 0 -19.5 10.5t-27 24.5t-24 28t-10.5 20q0 7 10.5 20.5t24 27t27 24t19.5 10.5q7 0 21 -10.5t28 -24 t24.5 -27.5t10.5 -20z" />
<glyph unicode="&#xbf;" horiz-adv-x="450" d="M47 77q0 17 12 36t30 37.5t38.5 37l39 34.5t31 30t13.5 25q1 12 -4 24t-5 14l80 29q1 -2 5 -8t7.5 -14t6.5 -17.5t3 -17.5q0 -17 -12.5 -35.5t-30.5 -37t-40 -36.5l-40 -34t-30.5 -30t-12.5 -24q0 -14 25 -30t76 -16q19 0 34 2.5t29 6.5t29 9.5l35 12.5q16 -30 16 -50 q0 -22 -11 -35.5t-28.5 -21t-38.5 -10t-41 -2.5q-42 0 -81 9.5t-69 25.5t-48 38t-18 48zM149 481q0 6 10.5 19.5t24.5 27.5t28 25t21 11q6 0 19.5 -10.5t27 -24.5t24 -28t10.5 -20q0 -7 -10.5 -20.5t-24 -27t-27 -24t-19.5 -10.5t-20 10.5t-28.5 24t-25 27.5t-10.5 20z" />
<glyph unicode="!" horiz-adv-x="309" d="M195 200h-80l-25 327l64 33l66 -33zM237 44q0 -6 -10.5 -20t-24.5 -28t-28 -25t-21 -11q-6 0 -20 10.5t-27.5 24.5t-24 28t-10.5 21t10.5 20.5t24.5 27t27.5 23.5t19.5 10t20 -10.5t28.5 -24t25 -27t10.5 -19.5z" />
<glyph unicode="&#xa1;" horiz-adv-x="309" d="M107 315h80l25 -326l-64 -34l-66 34zM66 472q0 6 10.5 19.5t24 28t27.5 25.5t21 11q6 0 20 -10.5t27.5 -24.5t24 -28t10.5 -21t-10.5 -20.5t-24.5 -27t-27.5 -24t-19.5 -10.5t-20 10.5t-28 24t-24.5 27.5t-10.5 20z" />
<glyph unicode="-" horiz-adv-x="362" d="M47 242v66l267 14v-81z" />
<glyph unicode="&#x2013;" horiz-adv-x="475" d="M28 240v68h418v-68h-418z" />
<glyph unicode="&#x2014;" horiz-adv-x="950" d="M28 240v68h893v-68h-893z" />
<glyph unicode="_" horiz-adv-x="475" d="M0 -155v68h475v-68h-475z" />
<glyph unicode="@" horiz-adv-x="758" d="M352 -129q-142 0 -214 83.5t-72 232.5q0 115 31 197.5t83.5 134.5t121.5 76.5t146 24.5q55 0 101.5 -15t79.5 -47.5t51.5 -83.5t18.5 -124q0 -74 -17.5 -126t-46 -84.5t-65.5 -47t-77 -14.5q-32 0 -54 16.5t-19 49.5q-10 -12 -23 -22.5t-27 -19t-29 -13t-28 -4.5 q-20 0 -37 6.5t-30.5 21t-21 38t-7.5 56.5q0 48 15 87t41 67t61.5 43.5t76.5 15.5q32 0 64 -7t47 -15l-24 -216q-5 -42 14 -42q15 0 36 7t41 29t34 63t14 109q0 63 -15 105t-40.5 67t-60.5 35.5t-75 10.5q-61 0 -118 -18t-101.5 -60.5t-71 -113.5t-26.5 -176 q0 -76 16 -127.5t46 -83t73 -45.5t98 -14q36 0 74 5t66 12l13 -50q-38 -15 -76.5 -19.5t-86.5 -4.5zM345 155q26 0 44 14.5t32 28.5l18 159q-5 2 -13 3t-16 1q-32 1 -53 -10.5t-33.5 -32t-17.5 -48t-5 -57.5q0 -35 15 -46.5t29 -11.5z" />
<glyph unicode="/" horiz-adv-x="310" d="M101 -59h-75l185 644h73z" />
<glyph unicode="\" horiz-adv-x="312" d="M28 585h73l183 -644h-74z" />
<glyph unicode="|" horiz-adv-x="261" d="M93 -209v925h75v-925h-75z" />
<glyph unicode="(" horiz-adv-x="335" d="M258 -211q-8 7 -26 28t-40.5 54t-46 77t-43 98.5t-32 118.5t-12.5 137t12.5 136t32 115.5t43 94t46 72t40.5 49t27 24.5l43 -42q-13 -11 -42 -47t-59 -93.5t-52.5 -135.5t-22.5 -172q0 -95 23 -176t52.5 -143t58.5 -101.5t41 -51.5l-43 -42v0z" />
<glyph unicode=")" horiz-adv-x="335" d="M40 -169q12 12 41 51.5t59 101.5t53 143t23 176q0 94 -22.5 172t-52.5 135.5t-59 93.5t-42 47l42 42q13 -9 46 -46t67.5 -99.5t61 -149.5t26.5 -196t-26.5 -198.5t-61 -155.5t-67 -107t-45.5 -52z" />
<glyph unicode="[" horiz-adv-x="330" d="M100 -209v992h159v-64h-86v-864h86v-64h-159z" />
<glyph unicode="]" horiz-adv-x="330" d="M70 -209v64h87v864h-87v64h160v-992h-160z" />
<glyph unicode="{" horiz-adv-x="356" d="M281 -210q-38 -1 -73.5 6t-62 25.5t-40.5 50t-9 80.5l20 213q2 19 -1.5 35.5t-12.5 29t-25 19.5t-39 7v61q22 0 38 8.5t25.5 22.5t13 32t1.5 38l-19 211q-5 45 8 75t38 47.5t59 24t73 6.5l32 -1l-1 -59h-27q-60 0 -89.5 -21.5t-24.5 -74.5l20 -199q7 -57 -12.5 -91.5 t-50.5 -47.5q30 -12 48 -45.5t13 -84.5l-20 -206q-5 -52 22.5 -75.5t92.5 -23.5h28l1 -62z" />
<glyph unicode="}" horiz-adv-x="356" d="M319 256q-23 0 -39 -7.5t-25 -20t-12.5 -29t-1.5 -34.5l19 -213q6 -49 -8 -81t-40.5 -50.5t-62.5 -25t-74 -5.5l-25 1l1 62h27q65 0 92.5 24t22.5 75l-19 206q-6 51 12 84.5t50 45.5q-32 14 -51.5 48t-12.5 91l19 199q6 53 -23.5 74.5t-89.5 21.5h-28l-2 59h34 q38 0 72 -6.5t59 -24t38 -47t9 -74.5l-20 -211q-2 -19 2 -37t13.5 -32.5t25 -23t38.5 -8.5v-61v0z" />
<glyph unicode="&#xa7;" horiz-adv-x="609" d="M559 241q0 -51 -21.5 -86t-56.5 -58q30 -25 49.5 -58t19.5 -80q0 -46 -23.5 -79t-61.5 -54.5t-85.5 -32t-95.5 -10.5q-53 0 -111 11t-105 34l10 163h56q8 -69 54.5 -105t119.5 -36q25 0 48 5t41 15.5t29 25.5t11 36q0 24 -13 41t-34.5 31t-49.5 25.5l-58 23.5 q-34 13 -68.5 32t-62.5 44.5t-45.5 58.5t-17.5 76q0 46 23.5 86.5t60.5 69.5q-30 24 -48.5 57t-18.5 79q0 44 19.5 78t52 57t73.5 34.5t84 11.5q57 0 110 -8.5t91 -28.5v-148h-46q-6 27 -20.5 48.5t-35.5 36.5t-46 23t-52 8q-57 0 -92.5 -18.5t-35.5 -55.5q0 -21 11 -38 t30.5 -31.5t45.5 -26.5t56 -24q37 -15 74.5 -36t67.5 -49t48.5 -65t18.5 -83zM292 357q-30 11 -56 24q-21 -14 -33.5 -33.5t-12.5 -45.5q0 -21 12.5 -40t33 -35.5t47.5 -30.5t57 -26q17 -8 35 -15.5t35 -15.5q17 12 26.5 30t9.5 45q0 24 -13 44.5t-34 38.5t-49 33t-58 27z " />
<glyph unicode="&#x2022;" horiz-adv-x="465" d="M370 334q0 -32 -10.5 -57t-29.5 -42.5t-44 -27t-53 -9.5q-29 0 -54 9.5t-43.5 27.5t-29.5 43t-11 56t11 56.5t29.5 43.5t43.5 28t54 10q28 0 53 -10t44 -28t29.5 -43.5t10.5 -56.5z" />
<glyph unicode="#" horiz-adv-x="583" d="M427 132l-8 -158h-69q0 6 1 29t2 50t2.5 50t1.5 29h-148l-8 -158h-69q0 6 1 29t2.5 50t3 50t1.5 29h-87v69h90q0 4 1 24t2 43t2.5 42.5t1.5 23.5h-97v69h100l8 146h70q0 -5 -1 -26.5t-2.5 -46.5t-3 -46.5t-1.5 -26.5h148l8 146h70l-8 -146h88v-69h-91l-8 -133h99v-69 h-102zM220 334l-6 -133h146l8 133h-148z" />
<glyph unicode="%" horiz-adv-x="674" d="M211 350q-23 0 -44.5 6t-38 19t-26 34t-9.5 52q0 29 10 51.5t26.5 37.5t38 22.5t45.5 7.5q23 0 45 -5.5t38.5 -19t26.5 -35.5t10 -54q0 -29 -10 -50.5t-27 -36t-39 -22t-46 -7.5zM211 402q25 0 39 17.5t14 46.5t-12.5 45.5t-39.5 16.5q-23 0 -37 -16.5t-14 -50.5 q0 -59 50 -59zM472 -18q-23 0 -44.5 5.5t-38 18.5t-26 34.5t-9.5 52.5q0 29 10 51t26.5 37t38 23t45.5 8t46 -5.5t39 -19t27 -35.5t10 -54q0 -29 -10 -50.5t-27.5 -36t-40 -22t-46.5 -7.5zM473 34q24 0 38.5 17.5t14.5 47.5q0 28 -12.5 44.5t-39.5 16.5q-23 0 -36.5 -16.5 t-13.5 -50.5q0 -59 49 -59zM79 110l476 385l39 -52l-476 -386z" />
<glyph unicode="&#x2030;" horiz-adv-x="953" d="M211 350q-23 0 -44.5 6t-38 19t-26 34t-9.5 52q0 29 10 51.5t26.5 37.5t38 22.5t45.5 7.5q23 0 45 -5.5t38.5 -19t26.5 -35.5t10 -54q0 -29 -10 -50.5t-27 -36t-39 -22t-46 -7.5zM211 402q25 0 39 17.5t14 46.5t-12.5 45.5t-39.5 16.5q-23 0 -37 -16.5t-14 -50.5 q0 -59 50 -59zM472 -18q-23 0 -44.5 5.5t-38 18.5t-26 34.5t-9.5 52.5q0 29 10 51t26.5 37t38 23t45.5 8t46 -5.5t39 -19t27 -35.5t10 -54q0 -29 -10 -50.5t-27.5 -36t-40 -22t-46.5 -7.5zM473 34q24 0 38.5 17.5t14.5 47.5q0 28 -12.5 44.5t-39.5 16.5q-23 0 -36.5 -16.5 t-13.5 -50.5q0 -59 49 -59zM750 -18q-23 0 -44.5 5.5t-38 18.5t-26 34.5t-9.5 52.5q0 29 10 51t26.5 37t38.5 23t45 8q24 0 46 -5.5t39 -19t27 -35.5t10 -54q0 -29 -10 -50.5t-27.5 -36t-40 -22t-46.5 -7.5zM750 34q26 0 40.5 17.5t14.5 47.5q0 28 -13 44.5t-40 16.5 q-23 0 -36.5 -16.5t-13.5 -50.5q0 -59 48 -59zM79 110l476 385l39 -52l-476 -386z" />
<glyph unicode="&#x2020;" horiz-adv-x="493" d="M451 334l-167 20l19 -386l-52 -16l-54 16l19 386l-168 -20l-14 45l14 47l168 -20l-19 173l53 15l53 -15l-19 -173l167 20l14 -47z" />
<glyph unicode="'" horiz-adv-x="254" d="M76 717h109q-2 -9 -6 -43l-8.5 -73.5l-8.5 -73.5l-5 -43h-81v233z" />
<glyph unicode="&#x22;" horiz-adv-x="452" d="M76 717h108q-2 -9 -5.5 -43t-8 -73.5t-8 -73.5t-4.5 -43h-82v233zM275 717h109l-5 -43l-8.5 -73.5t-9 -73.5t-5.5 -43h-81v233z" />
<glyph unicode="&#x201c;" horiz-adv-x="543" d="M462 530l-20 -21.5t-21 -25t-17.5 -27.5t-8.5 -29q9 -6 19.5 -16.5l20.5 -21.5t16.5 -21t6.5 -15q0 -8 -10 -21t-23 -25.5t-26.5 -22t-19.5 -9.5q-9 0 -23 10t-27 23.5t-22.5 28.5t-9.5 26q0 27 11.5 56t30.5 55.5t42 49t47 36.5zM242 530l-20 -21.5t-21 -25t-17 -27.5 t-8 -29q9 -6 19.5 -16.5t20 -21.5t16 -21t6.5 -15q0 -8 -10 -21t-23 -25.5t-26 -22t-19 -9.5q-9 0 -23 10t-27 23.5t-22.5 28.5t-9.5 26q0 27 11.5 56t30 55.5t42 49t47.5 36.5z" />
<glyph unicode="&#x201d;" horiz-adv-x="543" d="M469 467q0 -27 -11.5 -56t-30 -55.5t-42 -49t-47.5 -36.5l-33 29l20 22t21 25.5t17.5 28t8.5 29.5q-9 6 -19.5 16.5l-20.5 21.5t-16.5 20.5t-6.5 14.5q0 7 10 20.5t23 26.5t26 22.5t20 9.5q8 0 22 -10t27 -24t22.5 -29t9.5 -26zM249 467q0 -27 -11.5 -56t-30 -55.5 t-42 -49t-46.5 -36.5l-34 29l20 22t21.5 25.5t17.5 28t9 29.5q-9 6 -20 16.5t-21 21.5t-16.5 20.5t-6.5 14.5q0 7 10 20.5t23 26.5t26.5 22.5t19.5 9.5q9 0 22.5 -10t26.5 -24t22.5 -29t9.5 -26z" />
<glyph unicode="&#x2018;" horiz-adv-x="322" d="M239 524l-20 -21t-21 -25.5t-17.5 -28t-8.5 -29.5q9 -6 19.5 -16.5l20.5 -21t16.5 -20.5t6.5 -14q0 -8 -10 -21t-23 -26.5t-26.5 -23t-19.5 -9.5q-9 0 -22.5 10t-26.5 24t-22.5 29t-9.5 25q0 27 11.5 56t30 56t41.5 49.5t47 36.5l34 -30v0z" />
<glyph unicode="&#x2019;" horiz-adv-x="322" d="M246 461q0 -27 -11.5 -56t-30 -56t-42 -49.5t-47.5 -36.5l-33 30l20 21t21 25.5t17 28t9 29.5q-9 6 -20 16.5t-21 21.5t-16.5 20.5t-6.5 14.5q0 7 10 20.5t23.5 26.5t26.5 22.5t19 9.5q9 0 23 -10t27 -23.5t22.5 -29t9.5 -25.5z" />
<glyph unicode="&#x2039;" horiz-adv-x="295" d="M240 457l-17 -50.5t-20.5 -53t-24 -51t-26.5 -44.5l23 -47.5t23 -52t20.5 -52.5t15.5 -48q-12 -2 -23 -5l-21 -4t-20 -4q-8 21 -20 47.5t-27.5 54.5t-33 56.5l-34.5 54.5q42 57 75 112.5t50 99.5q9 -2 20 -4l19.5 -4.5t20.5 -4.5z" />
<glyph unicode="&#x203a;" horiz-adv-x="295" d="M240 258l-34 -54.5l-32.5 -56.5t-28 -54.5t-19.5 -47.5q-9 2 -20 4l-21 4q-11 3 -22 5q6 22 15.5 48t20.5 52.5l22.5 52t22.5 47.5q-14 20 -26.5 44.5t-24 51t-21 53l-17.5 50.5q10 2 21 4.5l20 4.5q11 2 20 4q17 -44 49.5 -99.5t74.5 -112.5z" />
<glyph unicode="&#xab;" horiz-adv-x="487" d="M434 444q-16 -48 -36 -97t-48 -89q23 -44 44 -94.5t33 -95.5l-22 -4q-10 -2 -21 -4.5t-21 -4.5q-15 43 -45 96.5t-64 106.5q42 57 72 106t47 93l21 -4l19.5 -4.5t20.5 -4.5zM239 457l-17.5 -50.5t-20.5 -53t-24 -51t-27 -44.5l23 -47.5t23 -52t20.5 -52.5t15.5 -48 q-11 -2 -22 -5q-20 -5 -42 -8q-8 21 -20 47.5t-27 54.5t-32.5 56.5l-34.5 54.5q42 57 74.5 112.5t50.5 99.5q9 -2 20 -4l19.5 -4.5t20.5 -4.5z" />
<glyph unicode="&#xbb;" horiz-adv-x="487" d="M433 258l-34 -54.5l-32.5 -56.5t-28 -54.5t-19.5 -47.5q-19 3 -41 8q-11 3 -22 5q12 45 35 100.5t46 99.5q-14 20 -27 44.5t-24 51l-21 53t-17 50.5q10 2 21 4.5l20 4.5q11 2 20 4q17 -44 49.5 -99.5t74.5 -112.5zM234 258q-35 -53 -65 -106.5t-45 -96.5q-10 2 -20.5 4.5 t-20.5 4.5l-22 4q12 45 33 95.5t44 94.5q-28 40 -48.5 89t-36.5 97q10 2 21 4.5l20 4.5q11 2 20 4q18 -44 48 -93t72 -106z" />
<glyph unicode="*" horiz-adv-x="428" d="M370 468l-27 -25l-102 66l5 -121l-32 -10l-34 10l9 122l-105 -67l-23 22l-9 35l109 54l-109 57l7 34l26 23l105 -69l-9 125l33 9l33 -9l-4 -123l101 67l26 -22l6 -34l-113 -56l113 -55z" />
<glyph unicode="+" horiz-adv-x="570" d="M323 253l2 -218h-80l2 218l-190 -2v71l190 -2l-2 217h80l-2 -217l190 2v-71z" />
<glyph unicode="&#x3c;" horiz-adv-x="570" d="M513 106l-33 -64l-423 221v44l423 221l33 -64l-343 -179z" />
<glyph unicode="=" horiz-adv-x="570" d="M57 340v71h456v-71h-456zM57 160v71h456v-71h-456z" />
<glyph unicode="&#x3e;" horiz-adv-x="570" d="M400 285l-343 179l33 64l423 -221v-44l-423 -221l-33 64z" />
<glyph unicode="0" horiz-adv-x="646" d="M598 261q0 -63 -23 -113t-62.5 -85.5t-92 -54t-110.5 -18.5q-57 0 -105.5 16t-83 48t-54 80t-19.5 113q0 64 23 116.5t62 89.5t91 57t110 20t106.5 -17.5t83.5 -51.5t54.5 -84.5t19.5 -115.5zM482 258q0 43 -11.5 80t-33 63t-51.5 41t-67 15q-77 0 -117.5 -48.5 t-40.5 -145.5q0 -43 11.5 -79t33.5 -62.5t53.5 -41t70.5 -14.5q78 0 115 50.5t37 141.5z" />
<glyph unicode="1" horiz-adv-x="444" d="M416 56q0 -12 -1 -29t-3 -27h-361q-3 11 -4 27t0 26l86 26q15 5 25.5 15.5t11.5 30.5l4 137v183h-140v62l247 33v-278l3 -144q1 -20 6.5 -27t24.5 -12l101 -23v0z" />
<glyph unicode="2" horiz-adv-x="484" d="M39 0l-20 66q16 13 44 33t59.5 45l64 53t59 56t43 55t16.5 50q0 43 -25.5 63.5t-72.5 20.5q-37 0 -74 -8.5t-63 -20.5l-24 63q35 22 78.5 39t103.5 17q43 0 79 -9t62 -28t40.5 -48.5t14.5 -70.5q0 -47 -27.5 -89t-68 -78t-88.5 -66l-88 -54l295 12v-101h-408z" />
<glyph unicode="3" horiz-adv-x="484" d="M428 131q0 -50 -21 -88t-55.5 -63t-77.5 -37.5t-87 -12.5q-29 0 -52 2t-42.5 5.5t-37.5 9t-36 13.5l26 82q29 -14 62 -26t81 -12q126 0 126 98q0 27 -12 46.5t-34 32t-52.5 19.5t-67.5 10l-9 54q28 3 54.5 11.5t46.5 21.5t32.5 31.5t12.5 42.5q0 38 -28 59t-73 21 q-32 0 -63 -10.5l-54 -18.5l-23 60q28 18 71.5 34.5t93.5 16.5q40 0 74.5 -7t60 -23.5t40 -42.5t14.5 -64q0 -26 -10 -46t-27 -36t-38.5 -27.5t-44.5 -19.5q28 -4 55 -14.5t48 -27.5t34 -40.5t13 -53.5z" />
<glyph unicode="4" horiz-adv-x="526" d="M401 78l5 -145h-116l4 145h-249l-33 73l205 368h68l-187 -351h196v351h106v-351h96v-90h-95z" />
<glyph unicode="5" horiz-adv-x="493" d="M451 132q0 -43 -21.5 -80.5t-56.5 -65t-79 -43t-90 -15.5q-58 0 -98 9.5t-75 22.5l26 84q33 -14 70 -27t82 -13q62 0 93.5 20t31.5 65q0 31 -21.5 54.5t-57 39t-82.5 24.5t-98 11l31 301h330l-8 -102l-253 20l-14 -122q57 -5 109.5 -18.5t92.5 -36t64 -54.5t24 -74z" />
<glyph unicode="6" horiz-adv-x="548" d="M501 191q0 -42 -16 -79t-45 -64.5t-69 -43.5t-88 -16q-123 0 -178.5 68.5t-55.5 192.5q0 65 20.5 125t59.5 105.5t95 73t127 27.5q28 0 56 -4.5t54 -15.5l-23 -83q-23 9 -44 14t-47 5q-56 0 -92 -15.5t-56.5 -46.5t-28.5 -76t-8 -104q0 -39 7 -74.5t23 -63t41 -44 t60 -16.5q52 0 75 30.5t23 82.5q0 51 -26.5 79.5t-82.5 28.5q-14 0 -28.5 -2.5t-28.5 -4.5l-8 62q45 19 101 19q38 0 71.5 -10t58 -29.5t39 -50t14.5 -70.5z" />
<glyph unicode="7" horiz-adv-x="460" d="M129 -73l-86 39l305 459l-323 -9v103h405l29 -54z" />
<glyph unicode="8" horiz-adv-x="536" d="M493 169q0 -42 -20 -76t-53.5 -57t-78 -35.5t-92.5 -12.5q-93 0 -148.5 38.5t-55.5 120.5q0 44 28 81t76 62q-35 20 -57.5 48.5t-22.5 73.5q0 31 16.5 61t45 54t66 39t79.5 15q43 0 79 -9t62 -26.5t40.5 -44t14.5 -61.5q0 -43 -25.5 -77.5t-73.5 -58.5q24 -11 46 -23.5 t38.5 -29t26 -36.5t9.5 -46zM367 427q0 38 -25.5 64t-74.5 26q-43 0 -69 -22.5t-26 -59.5q0 -21 13.5 -37t35.5 -29t50 -24l58 -22q24 27 31 55.5t7 48.5zM380 145q0 23 -17 39.5t-44 30t-60 25.5t-65 26q-23 -21 -34 -47t-11 -63q0 -20 8 -38.5t23.5 -33t38.5 -23.5t52 -9 q51 0 80 27t29 66z" />
<glyph unicode="9" horiz-adv-x="548" d="M504 270q0 -65 -21 -125t-60 -106t-95 -73.5t-126 -27.5q-28 0 -56 4.5t-54 15.5l24 83q42 -18 90 -18q56 0 92 15.5t56.5 46t28.5 75.5t8 104q0 39 -7.5 75t-23 63t-40.5 43.5t-60 16.5q-52 0 -75 -30t-23 -82t26.5 -80.5t83.5 -28.5q14 0 28 2.5t28 4.5l9 -63 q-23 -9 -48 -14t-54 -5q-38 0 -71.5 10t-58.5 30t-39 50.5t-14 71.5q0 42 16 79t45 64.5t69.5 43.5t88.5 16q123 0 178 -69t55 -192z" />
<glyph unicode="&#x2122;" horiz-adv-x="836" d="M711 331l-36 212l-7 55l-13 -51l-68 -216h-78l-53 213l-10 48l-7 -49l-41 -212h-63l75 341h73l52 -209l19 -81l23 83l66 207h74l62 -341h-68zM353 611l-121 10v-156l5 -134h-69l3 134v156l-121 -10v61h303v-61z" />
<glyph unicode="&#xae;" horiz-adv-x="594" d="M518 505q0 -51 -17 -90t-46.5 -65.5t-69.5 -40.5t-86 -14q-37 0 -76.5 10.5t-72 35t-53.5 65t-21 99.5q0 51 17 91t47 67.5t70.5 41.5t87.5 14q40 0 79 -11.5t70.5 -37t51 -66.5t19.5 -99zM471 505q0 45 -14.5 78t-38.5 54t-55 31t-64 10q-36 0 -67.5 -9.5t-55.5 -30 t-38 -52.5t-14 -77q0 -56 19.5 -90.5t48 -53t59 -24.5t53.5 -6q36 0 66.5 11t53 32.5t35 53t12.5 73.5zM408 395q-25 1 -43.5 6.5t-32.5 19.5t-26.5 32.5t-20.5 33.5h-20l2 -86h-56l2 91v140h86q38 0 60 -17t22 -55q0 -46 -42 -65q5 -8 16 -22.5t21 -24.5q10 -9 17.5 -14.5 t19.5 -10.5zM327 559q0 20 -9.5 29.5t-34.5 9.5h-18v-79h14q48 0 48 40z" />
<glyph unicode="&#xa9;" horiz-adv-x="872" d="M799 334q0 -83 -28 -147t-76.5 -108t-114.5 -67t-141 -23q-61 0 -126 17.5t-118 57.5t-87.5 106t-34.5 164q0 84 28.5 149.5t77.5 110.5t115.5 68.5t142.5 23.5q66 0 130.5 -19t116 -61t83.5 -109t32 -163zM745 334q0 80 -26 138t-69 95.5t-98 55.5t-113 18 q-63 0 -119 -17t-98 -53.5t-67 -93.5t-25 -137q0 -66 16.5 -114.5t43 -82.5t60 -55.5t68.5 -33.5t68.5 -16.5t59.5 -4.5q64 0 118.5 19.5t94.5 58t63 94.5t23 129zM577 155q-31 -11 -61 -15t-64 -4q-104 0 -159.5 49.5t-55.5 157.5q0 46 14.5 85.5t42 68.5t66.5 45.5 t89 16.5q20 0 35 -1t29 -4t27.5 -7.5t30.5 -11.5v-93q-5 -2 -15 -1.5t-18 1.5q-12 32 -31.5 50t-59.5 18q-60 0 -97.5 -37.5t-37.5 -124.5q0 -83 41.5 -119t109.5 -36q26 0 50 3t48 8z" />
<glyph unicode="&#x20ac;" horiz-adv-x="587" d="M522 36q-20 -14 -64 -29.5t-110 -15.5q-113 0 -169 43t-71 134h-76v50h71q-1 12 -1 23.5v23.5v17t2 17h-72v51h82q12 37 33.5 70.5t52.5 58t70.5 39t86.5 14.5q21 0 49 -2.5t53 -10.5t42.5 -22t17.5 -36q0 -28 -10 -41.5t-32 -29.5q-12 11 -27.5 23.5t-32 22.5 t-33.5 16.5t-34 6.5q-55 0 -87.5 -24.5t-45.5 -84.5h181v-51h-188q-1 -8 -1 -17.5v-19.5q0 -11 0.5 -22t1.5 -22h187v-50h-176q15 -46 51.5 -73.5t102.5 -27.5q9 0 23 5t29 12.5t30 16t27 16.5q15 -14 26 -36.5t11 -44.5z" />
<glyph unicode="$" horiz-adv-x="538" d="M460 150q0 -30 -12 -57.5t-33.5 -49t-53 -36t-70.5 -18.5v-148h-56v145q-32 1 -60.5 6.5t-50 15.5t-34 23.5t-12.5 29.5q0 28 9 43.5t26 29.5l35.5 -28.5t36 -26t33.5 -19t28 -7.5q25 0 47 3.5t38 11.5t25.5 21t9.5 32q0 24 -20 39t-50.5 28t-66 26.5t-66 34t-50.5 52 t-20 79.5q0 26 11.5 50.5t31 44t45 34t54.5 20.5v140h56v-136q30 -1 57 -6t47.5 -14t32.5 -22t12 -31q0 -30 -9 -41t-23 -22l-72 47t-63 21q-44 0 -68.5 -16.5t-24.5 -48.5q0 -20 18.5 -33t46.5 -24q30 -14 67.5 -28.5t70.5 -35.5t55 -51.5t22 -77.5z" />
<glyph unicode="&#xa2;" horiz-adv-x="515" d="M469 462q0 -32 -12.5 -51.5t-36.5 -33.5q-10 12 -24 26.5t-30.5 26.5t-34 20.5t-34.5 8.5q-35 0 -61 -10.5t-43.5 -33.5t-26.5 -61t-9 -92q0 -41 8 -75.5t27.5 -59t51.5 -38t80 -13.5q30 0 64.5 5.5t57.5 10.5l19 -58q-21 -12 -57 -25.5t-87 -17.5v-150h-56v150 q-60 3 -101.5 20.5t-67 50.5t-36.5 83t-11 119q0 46 14.5 90.5t42.5 80.5t68 61t91 32v141h56v-138q22 -1 48 -4t48 -10.5t37 -20.5t15 -34z" />
<glyph unicode="&#xa3;" horiz-adv-x="557" d="M525 75q-17 -30 -43.5 -52.5t-73.5 -22.5h-376q-3 13 -3.5 24.5t-0.5 24.5l49 15q23 7 31 21t11 42l16 148h-72v55h78l5 58q4 38 23.5 73t49 61.5t65.5 42t75 15.5q27 0 51.5 -3t43.5 -10.5t30.5 -21t11.5 -33.5q0 -23 -11.5 -37t-28.5 -23l-23.5 19t-25 19t-24.5 15 t-22 6q-31 0 -50.5 -8.5t-31.5 -24.5t-17 -37.5t-8 -46.5l-6 -64h165v-55h-171l-19 -190l191 6q23 1 36 9t27 22l48 -47v0z" />
<glyph unicode="&#xa5;" horiz-adv-x="629" d="M575 455q-32 -5 -45 -19l-39 -51l-40 -54h108v-54h-145q-17 -22 -30 -42.5l-24 -36.5v-15h199v-53h-199v-26l10 -104h-130l10 106v24h-185v53h185v14l-21 37.5t-25 42.5h-139v54h106q-15 24 -31 47l-32 46q-12 16 -25.5 23.5t-33.5 13.5l-3 42q33 10 68.5 16.5t58.5 6.5 q7 -9 18.5 -28l25.5 -44l29 -54l29 -56.5l26 -52t19 -40.5l36 61.5l43.5 75l45 74.5t39.5 60q9 -1 21.5 -3t27.5 -5t30 -7t29 -9z" />
<glyph unicode="&#xa4;" horiz-adv-x="477" d="M35 120l65 62q-16 19 -25 46t-9 56t8.5 56t24.5 45l-64 63l38 38l67 -65q20 11 46 19.5t52 8.5q27 0 52.5 -6.5t46.5 -20.5l66 66l39 -40l-63 -63q17 -18 24.5 -45t7.5 -56t-8.5 -56.5t-25.5 -46.5l64 -63l-38 -39l-66 66q-21 -11 -46.5 -18.5t-52.5 -7.5 q-26 0 -51.5 6.5t-45.5 20.5l-68 -65zM238 183q54 0 77.5 29.5t23.5 71.5q0 21 -6 39.5t-18.5 32.5t-31.5 22t-45 8q-51 0 -76 -30t-25 -72t25.5 -71.5t75.5 -29.5z" />
<glyph unicode="a" horiz-adv-x="596" d="M574 42q0 -10 -1 -20.5t-4 -21.5h-219q-4 13 -5 23t0 24l47 16q14 5 16.5 13.5t-0.5 18.5l-38 100h-172l-37 -88q-8 -17 -3 -29.5t19 -16.5l58 -15q0 -10 -1.5 -22.5t-5.5 -23.5h-202q-3 13 -4 21t0 19l25 15q11 8 17 19.5l14 26.5l186 413l85 19l172 -435q13 -32 32 -44 zM319 345l-24 87h-5l-31 -86l-36 -91h127z" />
<glyph unicode="&#xe0;" horiz-adv-x="596" d="M217 795q43 -48 87 -87.5t98 -77.5l-30 -46q-57 30 -110 66t-107 78zM579 42q0 -10 -1 -20.5t-4 -21.5h-220q-3 13 -4 23t0 24l47 16q14 5 16.5 13.5t-1.5 18.5l-37 100h-173l-37 -88q-7 -17 -2.5 -29.5t18.5 -16.5l58 -15q0 -10 -1.5 -22.5t-4.5 -23.5h-203q-2 13 -3 21 t0 19l24 15q11 8 17.5 19.5l14.5 26.5l186 413l84 19l172 -435q8 -17 15 -27.5t18 -16.5zM324 345l-24 87h-6l-30 -86l-36 -91h126z" />
<glyph unicode="b" horiz-adv-x="596" d="M536 156q0 -32 -13 -60t-39 -49.5t-65 -34t-91 -12.5h-264q-2 12 -3.5 24t-0.5 23l37 10q15 4 25.5 12t11.5 26l1 108v229q0 21 -19 28l-50 17q0 8 0.5 19.5t4.5 22.5h234q193 0 193 -130q0 -24 -7 -41.5t-17.5 -30.5t-23 -21.5t-23.5 -13.5q15 -3 34 -10.5t35.5 -22.5 t28 -37.5t11.5 -55.5zM389 376q0 44 -22.5 61.5t-78.5 17.5h-52v-158h57q96 0 96 79zM427 148q0 45 -32 65.5t-104 20.5h-55v-33l1 -135h75q50 0 82.5 19t32.5 63z" />
<glyph unicode="c" horiz-adv-x="560" d="M503 28q-34 -15 -74.5 -24t-82.5 -9q-67 0 -120 14.5t-90 46t-56.5 80.5t-19.5 118q0 57 21 107t58.5 87t89.5 58.5t114 21.5q24 0 44 -1.5t38.5 -5t37 -9.5t39.5 -15v-123q-2 0 -9 -0.5t-15 -0.5t-15.5 0.5t-10.5 0.5q-15 41 -41.5 63.5t-78.5 22.5q-37 0 -68 -11 t-53 -34.5t-34.5 -61t-12.5 -90.5q0 -46 15 -81t41.5 -58.5t61.5 -35.5t76 -12q35 0 64.5 4t63.5 12l17 -64v0z" />
<glyph unicode="&#xe7;" horiz-adv-x="560" d="M434 -160q0 -21 -11 -42t-29.5 -37.5t-42 -26.5t-48.5 -10q-23 0 -47 7t-47 23l36 63q19 -13 42.5 -20t44.5 -7q17 0 29 6.5t12 19.5q0 15 -10.5 25t-28.5 17t-42 12t-51 10l50 118q-110 10 -170.5 71.5t-60.5 184.5q0 57 21 107t58.5 87t89.5 58.5t114 21.5 q24 0 44 -1.5t38.5 -5t37 -9.5t39.5 -15v-123q-2 0 -9 -0.5t-15 -0.5t-15.5 0.5t-10.5 0.5q-15 41 -41.5 63.5t-78.5 22.5q-37 0 -68 -11t-53 -34.5t-34.5 -61t-12.5 -90.5q0 -46 15 -81t41.5 -58.5t61.5 -35.5t76 -12q35 0 64.5 4t63.5 12l17 -64q-33 -14 -71.5 -23 t-80.5 -10l-32 -60q58 -13 86.5 -33t28.5 -62z" />
<glyph unicode="d" horiz-adv-x="667" d="M607 271q0 -68 -22.5 -118.5t-62.5 -84.5t-96.5 -51t-123.5 -17h-238l-3.5 23.5t-0.5 24.5l41 9q14 5 23 14t9 30l2 103v226q0 21 -18 28l-51 18q0 9 0.5 20t4.5 23h227q64 0 120.5 -10t98.5 -37.5t66 -76t24 -124.5zM496 257q0 100 -50.5 147.5t-150.5 47.5h-59v-249 l3 -137h72q94 0 139.5 45t45.5 146z" />
<glyph unicode="e" d="M492 0h-428q-6 25 -4 48l39 10q14 3 24.5 10t10.5 23l2 113v226q0 20 -14 26l-56 20q0 10 0.5 20.5t5.5 22.5h407v-128q-12 -3 -27.5 -3t-26.5 1q-7 35 -19 47.5t-35 13.5l-135 3v-161l212 4v-73l-212 6v-26l2 -137l126 1q38 2 61 22t34 52l50 -9z" />
<glyph unicode="&#xe9;" d="M462 728q-54 -42 -107.5 -78t-110.5 -66l-29 46q54 38 98 77.5t87 87.5zM497 0h-429q-4 27 -3 48l39 10q14 3 24.5 10t10.5 23l2 113v226q0 21 -15 26l-55 20q0 10 0.5 20.5t5.5 22.5h407v-128q-13 -3 -28.5 -3t-26.5 1q-6 35 -18 47.5t-35 13.5l-136 3v-161l213 4v-73 l-213 6v-26l3 -137l126 1q38 2 61 22t34 52l50 -9z" />
<glyph unicode="&#xea;" d="M118 626q52 42 93 83l82 86l36.5 -41.5l42 -44.5t43.5 -42t40 -34l-43 -46q-36 22 -70 49.5l-61 50.5q-22 -20 -55.5 -46t-73.5 -54zM497 0h-429q-4 27 -3 48l39 10q14 3 24.5 10t10.5 23l2 113v226q0 21 -15 26l-55 20q0 10 0.5 20.5t5.5 22.5h407v-128q-13 -3 -28.5 -3 t-26.5 1q-6 35 -18 47.5t-35 13.5l-136 3v-161l213 4v-73l-213 6v-26l3 -137l126 1q38 2 61 22t34 52l50 -9z" />
<glyph unicode="&#xeb;" d="M177 617q-6 0 -16.5 8t-21 19t-18.5 21t-8 15q0 6 8 16.5t18.5 21t21.5 18.5t16 8t15.5 -8t21.5 -19t19 -21.5t8 -15.5q0 -3 -8 -13.5t-18.5 -21.5t-21 -19.5t-16.5 -8.5zM402 617q-5 0 -15.5 8t-21.5 19t-19 21t-8 15q0 6 8 16.5t19 21t21.5 18.5t15.5 8t15.5 -8 t21.5 -19t19 -21.5t8 -15.5q0 -3 -8 -13.5t-18.5 -21.5t-21 -19.5t-16.5 -8.5zM497 0h-429q-4 27 -3 48l39 10q14 3 24.5 10t10.5 23l2 113v226q0 21 -15 26l-55 20q0 10 0.5 20.5t5.5 22.5h407v-128q-13 -3 -28.5 -3t-26.5 1q-6 35 -18 47.5t-35 13.5l-136 3v-161l213 4 v-73l-213 6v-26l3 -137l126 1q38 2 61 22t34 52l50 -9z" />
<glyph unicode="&#xe8;" d="M497 0h-429q-4 27 -3 48l39 10q14 3 24.5 10t10.5 23l2 113v226q0 21 -15 26l-55 20q0 10 0.5 20.5t5.5 22.5h407v-128q-13 -3 -28.5 -3t-26.5 1q-6 35 -18 47.5t-35 13.5l-136 3v-161l213 4v-73l-213 6v-26l3 -137l126 1q38 2 61 22t34 52l50 -9zM189 795 q43 -48 87 -87.5t98 -77.5l-29 -46q-57 30 -110.5 66t-107.5 78z" />
<glyph unicode="f" horiz-adv-x="522" d="M474 385q-25 -4 -48 0q-7 29 -21.5 45t-43.5 16l-132 7v-182l217 6v-75l-217 5v-12l3 -110q0 -13 14 -16l86 -17q0 -12 -1.5 -27t-4.5 -25h-262l-3.5 23t-0.5 23l34 8q14 5 24 13t11 28l2 108v228q0 19 -15 25l-54 19q-1 9 -0.5 20.5t4.5 23.5h408v-134v0z" />
<glyph unicode="g" horiz-adv-x="599" d="M346 -5q-67 0 -120 15t-90 46.5t-56.5 80.5t-19.5 117q0 57 21.5 107t60 87t90 58.5t111.5 21.5q66 0 108.5 -11t72.5 -24v-123h-48q-15 42 -51 66t-93 24q-77 0 -122.5 -46.5t-45.5 -152.5q0 -49 15.5 -84.5t42.5 -59t62.5 -34.5t74.5 -11q19 0 37.5 3t30.5 7v149h99 v-199q-18 -7 -41.5 -13.5t-47.5 -12t-48 -8.5t-43 -3z" />
<glyph unicode="h" horiz-adv-x="731" d="M670 47q0 -9 -1.5 -23.5t-4.5 -23.5h-232q-5 24 -3 45l37 12q16 6 22.5 21t6.5 29l2 96v24h-267v-24l3 -118q0 -18 16 -21l62 -17q0 -9 -1 -23.5t-4 -23.5h-241q-2 11 -3.5 21.5t-0.5 21.5l44 16q12 5 18.5 18t6.5 27l1 99v224q0 19 -7 28t-20 11l-42 12q0 8 1 20t3 21 h222q2 -11 3.5 -22t0.5 -21l-44 -11q-11 -3 -14.5 -8t-3.5 -18v-145h267v128q0 13 -7 26t-18 17l-39 13v20.5t3 20.5h217q1 -12 1 -22t-2 -21l-40 -11q-10 -2 -13 -6t-3 -16v-240l2 -115q0 -15 2.5 -19t7.5 -6l62 -16v0z" />
<glyph unicode="&#x131;" horiz-adv-x="360" d="M44 0q-3 21 -3 46l51 17q14 4 22 14t9 31l2 121v189q-1 11 -6.5 20.5t-19.5 15.5l-49 19q-1 11 0 22.5t3 23.5h241q3 -12 3.5 -27.5t-0.5 -24.5l-52 -12q-11 -3 -15 -14t-4 -22v-187l2 -143q0 -20 17 -23l66 -15q0 -8 -1.5 -25.5t-5.5 -25.5h-260v0z" />
<glyph unicode="i" horiz-adv-x="360" d="M44 0q-3 21 -3 46l51 17q14 4 22 14t9 31l2 121v189q-1 11 -6.5 20.5t-19.5 15.5l-49 19q-1 11 0 22.5t3 23.5h241q3 -12 3.5 -27.5t-0.5 -24.5l-52 -12q-11 -3 -15 -14t-4 -22v-187l2 -143q0 -20 17 -23l66 -15q0 -8 -1.5 -25.5t-5.5 -25.5h-260v0z" />
<glyph unicode="&#xef;" horiz-adv-x="360" d="M61 617q-5 0 -16 8t-21.5 19t-18.5 21t-8 15q0 6 8 16.5t18.5 21t21.5 18.5t16 8t15.5 -8t21.5 -19t19 -21.5t8 -15.5q0 -3 -8 -13.5t-18.5 -21.5t-21 -19.5t-16.5 -8.5zM286 617q-5 0 -15.5 8t-21.5 19t-19 21t-8 15q0 6 8.5 16.5t19 21t21 18.5t15.5 8t15.5 -8 t21.5 -19t19.5 -21.5t8.5 -15.5q0 -3 -8 -13.5t-19 -21.5t-21.5 -19.5t-16.5 -8.5zM48 0q-1 11 -1.5 22.5t-0.5 23.5l51 17q14 4 21.5 14t8.5 31l3 121v189q-1 11 -6.5 20.5t-19.5 15.5l-49 19q-1 11 0 22.5t3 23.5h241q3 -12 3.5 -27.5t-0.5 -24.5l-52 -12q-11 -3 -15 -14 t-4 -22v-187l2 -143q0 -20 17 -23l65 -15q0 -8 -1.5 -25.5t-4.5 -25.5h-261z" />
<glyph unicode="j" horiz-adv-x="358" d="M256 464q-14 -4 -18.5 -10t-4.5 -18v-368q0 -41 -14 -72t-37.5 -55t-55 -43t-66.5 -35l-34 60q31 18 51.5 35.5t33 38.5t17.5 47.5t5 63.5v308q0 14 -8 28t-22 19q-9 3 -17 6q-7 2 -13 4t-7 3q0 10 0.5 21t3.5 22h223q2 -12 2.5 -23.5t-0.5 -22.5z" />
<glyph unicode="k" horiz-adv-x="623" d="M590 -14q-8 0 -27 1.5t-41.5 7t-46.5 16t-42 29.5l-200 214v-47l1 -119q1 -20 13 -23l47 -16q0 -9 -0.5 -24t-4.5 -25h-225q-2 11 -3.5 22t-0.5 23l37 11q14 4 24 13.5t11 30.5l1 103v220q0 17 -7 25.5t-18 13.5l-40 14q-1 8 -1 19.5t4 23.5h219q2 -13 3 -23t-1 -21 l-37 -13q-12 -5 -17 -17t-5 -25v-146l168 151q11 11 11 21q0 11 -8 14l-36 13q0 11 1 22.5t4 23.5h194v-41l-236 -195l155 -154q33 -33 62 -54t53 -33l-11 -56v0z" />
<glyph unicode="l" horiz-adv-x="520" d="M482 0h-419q-4 24 -3 47l30 8q17 4 28 12t12 28l2 107v221q0 31 -26 39l-40 14q0 10 0.5 20.5t3.5 22.5h221q2 -13 2.5 -24t-0.5 -23q-2 0 -8 -1.5t-13.5 -3t-14.5 -3.5t-11 -3q-14 -5 -14 -23v-235l3 -137l130 3q16 1 30 8.5t24.5 19t18 25t12.5 27.5l52 -7z" />
<glyph unicode="m" horiz-adv-x="849" d="M803 45q0 -9 -1 -22t-5 -23h-218q-4 23 -3 44l32 9q16 5 21.5 23t2.5 41l-30 234l-2 31h-2l-146 -377l-79 -22l-140 405h-2l-2 -31l-44 -271q-4 -17 6 -19l69 -21q0 -9 -1 -22.5t-4 -23.5h-205q-3 24 -3 43l31 15q29 13 35 50l59 320q3 21 -13 28l-55 19q0 8 0.5 20.5 t3.5 23.5h179l107 -302l29 -98h4l33 101l117 299h171q2 -12 2.5 -22t-0.5 -21l-39 -12q-14 -5 -19.5 -16t-2.5 -32l53 -327q3 -19 19 -26l42 -18v0z" />
<glyph unicode="n" horiz-adv-x="710" d="M612 462q-11 -4 -17.5 -16t-6.5 -26v-416l-77 -24l-308 415h-4l8 -51v-143l3 -114q0 -11 1.5 -14.5t11.5 -6.5l67 -20q0 -9 -1 -22.5t-5 -23.5h-221q-2 12 -3 22.5t0 21.5l45 14q14 4 21.5 18t7.5 31l3 94v226q0 14 -7.5 23t-19.5 14l-39 14q0 11 -0.5 20.5t3.5 20.5h165 l282 -374h2l-6 73v201q0 13 -7.5 25t-17.5 16l-49 18q0 8 1 19t4 22h207q2 -12 3 -20.5t0 -19.5z" />
<glyph unicode="&#xf1;" horiz-adv-x="710" d="M548 689l-19 -21.5t-23.5 -21.5t-30 -16.5t-38.5 -6.5q-15 0 -36 6t-42.5 13.5t-41 13.5t-31.5 6q-21 0 -37.5 -5t-32.5 -19l-27 33l20 22t24.5 22.5t30.5 17.5t38 7q18 0 41 -6.5t45 -14l40.5 -13.5t28.5 -6q15 0 27.5 3t20.5 7q10 4 17 10zM617 462q-11 -4 -17.5 -16 t-6.5 -26v-416l-77 -24l-308 415h-4l8 -51v-143l3 -114q0 -11 1.5 -14.5t11.5 -6.5l66 -20q0 -9 -0.5 -22.5t-4.5 -23.5h-222q-1 12 -2 22.5t0 21.5l45 14q13 4 21 18t8 31l3 94v226q0 14 -7.5 23t-19.5 14l-39 14q0 11 -0.5 20.5t3.5 20.5h165l281 -374h3l-6 73v201 q0 13 -7.5 25t-17.5 16l-50 18q0 8 1 19t5 22h207q2 -12 3 -20.5t0 -19.5z" />
<glyph unicode="o" horiz-adv-x="671" d="M603 279q0 -57 -19 -109.5t-55 -92.5t-88 -63.5t-118 -23.5q-128 0 -196.5 64.5t-68.5 185.5q0 60 20.5 112.5t58 92t89.5 62.5t115 23q66 0 115 -18.5t81.5 -51.5t49 -79.5t16.5 -101.5zM491 265q0 40 -8.5 75.5t-27.5 62.5t-49.5 42.5t-73.5 15.5q-45 0 -76 -17.5 t-49.5 -46t-27 -65.5t-8.5 -76q0 -38 8 -73t26.5 -62t48 -43.5t73.5 -16.5q47 0 78.5 17t50.5 45.5t27 65t8 76.5z" />
<glyph unicode="&#xf4;" horiz-adv-x="671" d="M165 626q53 42 94 83t81 86l36.5 -41.5l42.5 -44.5l43.5 -42t40.5 -34l-43 -46q-37 22 -70.5 49.5l-60.5 50.5q-23 -20 -56 -46t-74 -54zM608 279q0 -57 -19 -109.5t-55 -92.5t-88 -63.5t-118 -23.5q-128 0 -196.5 64.5t-68.5 185.5q0 60 20.5 112.5t58 92t89.5 62.5 t115 23q66 0 115 -18.5t81.5 -51.5t49 -79.5t16.5 -101.5zM496 265q0 40 -8.5 75.5t-27.5 62.5t-49.5 42.5t-73.5 15.5q-45 0 -76 -17.5t-49.5 -46t-27 -65.5t-8.5 -76q0 -38 8 -73t26.5 -62t48 -43.5t73.5 -16.5q47 0 78.5 17t50.5 45.5t27 65t8 76.5z" />
<glyph unicode="&#xf6;" horiz-adv-x="671" d="M219 617q-5 0 -15.5 8t-21 19t-18.5 21t-8 15q0 6 8 16.5t18.5 21t21 18.5t15.5 8t16 -8t22 -19t19 -21.5t8 -15.5q0 -3 -8 -13.5t-18.5 -21.5t-21.5 -19.5t-17 -8.5zM445 617q-5 0 -16 8t-21.5 19t-18.5 21t-8 15q0 6 8 16.5t19 21t21.5 18.5t15.5 8t15.5 -8t21.5 -19 t19 -21.5t8 -15.5q0 -3 -8 -13.5t-18.5 -21.5t-21 -19.5t-16.5 -8.5zM608 279q0 -57 -19 -109.5t-55 -92.5t-88 -63.5t-118 -23.5q-128 0 -196.5 64.5t-68.5 185.5q0 60 20.5 112.5t58 92t89.5 62.5t115 23q66 0 115 -18.5t81.5 -51.5t49 -79.5t16.5 -101.5zM496 265 q0 40 -8.5 75.5t-27.5 62.5t-49.5 42.5t-73.5 15.5q-45 0 -76 -17.5t-49.5 -46t-27 -65.5t-8.5 -76q0 -38 8 -73t26.5 -62t48 -43.5t73.5 -16.5q47 0 78.5 17t50.5 45.5t27 65t8 76.5z" />
<glyph unicode="p" horiz-adv-x="556" d="M521 360q0 -37 -14 -68.5t-41.5 -54t-68 -35.5t-93.5 -13h-29v60l15 1q27 1 49.5 6t39 16t26 30.5t9.5 49.5q0 42 -17.5 63t-44.5 29.5t-59.5 8.5t-62.5 1v-253l3 -115q0 -16 10 -18l80 -20q0 -8 -1 -23t-4 -25h-255q-2 12 -3 23t0 23l39 11q29 9 29 37l3 107v231 q0 18 -13 23l-57 20q-1 7 -0.5 19.5t5.5 24.5h274q40 0 73 -9.5t57 -29t37.5 -49.5t13.5 -71z" />
<glyph unicode="q" horiz-adv-x="671" d="M603 279q0 -42 -10.5 -82t-30.5 -74t-49.5 -61t-66.5 -45l117 -73q51 -33 104 -33q5 0 12 0.5t19 2t29 5l42 8.5l13 -57q-47 -28 -83 -38.5t-59 -10.5q-29 0 -57 11t-58 33l-164 128q-18 -3 -38 -3q-128 0 -196.5 64.5t-68.5 185.5q0 60 20.5 112.5t58 92t89.5 62.5 t115 23q66 0 115 -18.5t81.5 -51.5t49 -79.5t16.5 -101.5zM491 265q0 40 -8.5 75.5t-27.5 62.5t-49.5 42.5t-73.5 15.5q-45 0 -76 -17.5t-49.5 -46t-27 -65.5t-8.5 -76q0 -38 8 -73t26.5 -62t48 -43.5t73.5 -16.5q47 0 78.5 17t50.5 45.5t27 65t8 76.5z" />
<glyph unicode="r" horiz-adv-x="623" d="M614 -17q-19 0 -42.5 2t-48.5 8.5t-49.5 19t-45.5 33.5q-32 30 -60.5 76t-51.5 89q-5 -1 -12.5 -1h-15.5h-59l2 -130q1 -9 2.5 -11.5t6.5 -2.5l60 -16q0 -9 -1 -24.5t-4 -25.5h-229q-2 12 -2.5 23t0.5 22l30 9q14 5 22.5 13.5t10.5 28.5l2 105v236q-1 13 -12 18l-57 20 q-1 7 0 19.5t6 24.5h254q39 0 74 -7.5t61 -25t41.5 -46t15.5 -69.5q0 -42 -23 -80.5t-68 -56.5q7 -13 17.5 -29.5t22.5 -33.5l24.5 -33.5t24.5 -28.5q32 -32 56 -49.5t57 -25.5zM403 365q0 44 -28 65.5t-88 22.5l-58 1v-183h64q58 1 84 24.5t26 69.5z" />
<glyph unicode="s" horiz-adv-x="503" d="M451 147q0 -42 -20 -72.5t-51 -50t-70 -28.5t-76 -9q-45 0 -93.5 10t-88.5 30l10 133h52q4 -27 17.5 -48t32.5 -35t42 -21t47 -7q43 0 68.5 18.5t25.5 58.5q0 18 -11 30.5t-29 23t-41 19.5l-48 19q-27 10 -53 22.5t-46.5 30.5t-33 42t-12.5 58q0 36 17 65t44.5 50 t62 32.5t68.5 11.5q20 0 42.5 -1.5t45 -5t43 -9.5t36.5 -14l1 -124h-48q-11 42 -44 65t-74 23t-68.5 -16.5t-27.5 -55.5q0 -15 10.5 -26t28.5 -20.5t41 -18.5l47 -18q28 -12 55 -26t49 -32.5t35.5 -44t13.5 -59.5z" />
<glyph unicode="t" horiz-adv-x="536" d="M134 0q-5 22 -3 49l57 16q14 2 20 14.5t6 32.5l2 106v231h-93q-29 -1 -42 -23t-20 -56q-8 -1 -23 -0.5t-26 2.5v147h511v-147q-11 -2 -24 -2.5t-24 0.5q-8 35 -22.5 56.5t-46.5 22.5h-87v-231l3 -128q1 -14 3 -19t9 -6l72 -16q0 -11 -1 -24.5t-5 -24.5h-266v0z" />
<glyph unicode="u" horiz-adv-x="662" d="M576 459q-6 -2 -11 -6t-5 -16v-239q0 -63 -22 -103t-56 -63.5t-73.5 -32.5t-74.5 -9q-38 0 -78.5 7.5t-75 28t-56.5 57.5t-22 96v248q0 26 -23 34l-42 13q0 8 1 21t4 24h226q2 -13 2.5 -26t-0.5 -24l-47 -9q-15 -3 -15 -20v-253q0 -38 12.5 -62.5t32.5 -39t43.5 -20.5 t46.5 -6q25 0 48.5 7t41 23.5t28 44.5t10.5 70v217q0 32 -28 40q-12 3 -21 6q-8 2 -14.5 4t-8.5 3q0 11 -1 22t4 23h213q2 -13 2 -24.5v-22.5z" />
<glyph unicode="v" horiz-adv-x="595" d="M550 462q-10 -6 -18 -18.5t-15 -27.5l-192 -413l-75 -20l-176 437q-8 20 -12 27.5t-15 13.5q-6 3 -11 6q-5 2 -10.5 5t-10.5 5q0 10 1 20t4 22h218q6 -25 4 -49q-2 -1 -8.5 -2.5l-14.5 -3.5q-9 -2 -19 -4q-13 -3 -17 -10.5t1 -22.5l118 -307l130 285q9 17 3 32t-18 21 l-39 17q0 10 0.5 20.5t5.5 23.5h193q2 -14 2.5 -23t-0.5 -20z" />
<glyph unicode="w" horiz-adv-x="842" d="M802 465q-22 -12 -33 -43l-154 -420l-75 -20l-116 308l-140 -287l-72 -19l-140 446q-8 24 -27 34l-30 15q0 10 0.5 19t4.5 21h215q2 -13 3 -22.5t-1 -21.5l-38 -13q-24 -9 -13 -48l84 -294l120 254l-20 62q-2 5 -5.5 10.5t-6.5 7.5q0 1 -5.5 4.5l-12 8l-12 8t-6.5 4.5 q0 12 -0.5 20t2.5 20h211q4 -20 4 -43l-37 -13q-12 -5 -15 -18t2 -30l101 -294l97 287q15 42 -13 53l-37 15v20.5t5 22.5h184q2 -12 3 -21t0 -20z" />
<glyph unicode="x" horiz-adv-x="598" d="M569 43q0 -8 -1 -20.5t-4 -22.5h-213q-2 12 -3.5 22t0.5 21l32 20q14 7 0 26l-92 117l-93 -112q-9 -9 -7 -19t9 -12l42 -20q0 -8 -1 -20t-3 -23h-204q-4 23 -3 43l28 15q17 9 31.5 24t28.5 31l130 145l-131 161q-14 17 -32 30.5t-36 25.5q0 8 1 20.5t3 23.5h200 l3.5 -23.5t0.5 -20.5l-27 -10q-8 -4 -10.5 -12t5.5 -19l85 -104l87 100q8 9 6 18t-11 14l-28 14v21.5t3 21.5h187q2 -12 3 -22t0 -22q-23 -8 -45 -23t-37 -33l-122 -142l139 -168q14 -17 24.5 -28t26.5 -19q1 -2 12.5 -9t15.5 -10z" />
<glyph unicode="y" horiz-adv-x="570" d="M551 476q-20 -9 -32.5 -18t-23.5 -25l-163 -235l1 -106q0 -24 17 -29l60 -16q0 -11 -1 -24t-4 -23h-244q-3 11 -4 23t-1 25l50 13q10 3 17 11.5t7 22.5l2 100l-160 231q-13 19 -24.5 28.5l-28.5 23.5v20t3 21h206q3 -13 4 -23.5t1 -21.5q-2 -1 -8 -3.5t-13 -4.5l-18 -6 q-10 -4 -11.5 -16t7.5 -28l106 -159l100 141q8 9 10.5 17.5t2.5 15.5q0 16 -14 24l-42 20v21t4 23h189q4 -12 4.5 -21.5t0.5 -21.5z" />
<glyph unicode="z" horiz-adv-x="525" d="M465 0h-405l-18 53l287 401l-159 -3q-23 -4 -35.5 -21.5t-19.5 -52.5q-27 -2 -53 3v139h394l12 -43l-290 -407l171 4q32 5 52 27.5t30 51.5l52 -9z" />
<glyph unicode="&#xe6;" horiz-adv-x="815" d="M9 0q-3 13 -3.5 21.5t0.5 19.5l20 16l19 19t21 25l282 418h376v-128q-12 -3 -27 -3t-26 1q-8 35 -19.5 47.5t-34.5 13.5l-136 3v-161l212 4v-73l-212 6v-26l3 -137l125 1q38 2 61.5 22t34.5 52l49 -9l-17 -132h-428q-6 25 -4 48q14 3 27 5.5t23.5 7t17 11.5t6.5 19l2 97 v13h-165l-65 -95q-9 -14 -2 -27.5t18 -18.5l44 -17q0 -10 -1 -21t-5 -22h-196zM381 458l-40 -69l-84 -128h124v197z" />
<glyph unicode="&#x153;" horiz-adv-x="902" d="M327 -9q-128 0 -197.5 65t-69.5 183q0 61 21 114t58.5 91t90.5 60t116 22q68 0 110 -23q1 4 1 8q0 8 1 8h350v-128q-12 -3 -27.5 -3t-26.5 1q-7 35 -19 47.5t-35 13.5l-136 3v-161l214 4v-73l-214 6v-26l4 -137l125 1q38 2 61 22t34 52l50 -9l-17 -132h-369l-3 26 q-24 -17 -54 -26t-68 -9zM332 63q50 0 82 17t51 48v266q-19 30 -50.5 46.5t-78.5 16.5q-45 0 -76 -15.5t-50.5 -43t-28 -64t-8.5 -78.5q0 -41 8.5 -76t27 -61t49 -41t74.5 -15z" />
<glyph unicode="&#x26;" horiz-adv-x="739" d="M758 410q0 -33 -18.5 -61.5t-47.5 -51t-64.5 -38t-69.5 -22.5q-5 -56 -26.5 -101.5t-56.5 -78t-81.5 -50t-101.5 -17.5q-119 0 -181 63t-62 182q0 59 20.5 113t56.5 95t85.5 65t107.5 24q22 0 53 -2.5t59 -10.5t47.5 -23.5t19.5 -42.5q0 -29 -17.5 -46t-34.5 -28 l-30 32.5t-29.5 27t-34 18.5t-42.5 7q-44 0 -72.5 -17.5t-45 -46.5t-23 -66t-6.5 -76q0 -40 8 -76t25 -63.5t45 -43.5t68 -16q39 0 64 14t40 37.5t22 54.5t9 66q-44 2 -89.5 11.5t-83.5 32.5l19 23q8 9 13.5 16.5t7.5 9.5q46 -9 91 -15t89 -6q29 0 59.5 4t55 15t40.5 30 t16 50q0 16 -7 31.5t-19 28.5q12 11 27.5 16t31.5 5q32 0 47.5 -21.5t15.5 -51.5z" />
<glyph horiz-adv-x="245" />
<glyph horiz-adv-x="245" />
<glyph horiz-adv-x="245" />
<glyph horiz-adv-x="245" />
<glyph unicode="A" horiz-adv-x="596" d="M574 42q0 -10 -1 -20.5t-4 -21.5h-219q-4 13 -5 23t0 24l47 16q14 5 16.5 13.5t-0.5 18.5l-38 100h-172l-37 -88q-8 -17 -3 -29.5t19 -16.5l58 -15q0 -10 -1.5 -22.5t-5.5 -23.5h-202q-3 13 -4 21t0 19l25 15q11 8 17 19.5l14 26.5l186 413l85 19l172 -435q13 -32 32 -44 zM319 345l-24 87h-5l-31 -86l-36 -91h127z" />
<glyph unicode="B" horiz-adv-x="596" d="M536 156q0 -32 -13 -60t-39 -49.5t-65 -34t-91 -12.5h-264q-2 12 -3.5 24t-0.5 23l37 10q15 4 25.5 12t11.5 26l1 108v229q0 21 -19 28l-50 17q0 8 0.5 19.5t4.5 22.5h234q193 0 193 -130q0 -24 -7 -41.5t-17.5 -30.5t-23 -21.5t-23.5 -13.5q15 -3 34 -10.5t35.5 -22.5 t28 -37.5t11.5 -55.5zM389 376q0 44 -22.5 61.5t-78.5 17.5h-52v-158h57q96 0 96 79zM427 148q0 45 -32 65.5t-104 20.5h-55v-33l1 -135h75q50 0 82.5 19t32.5 63z" />
<glyph unicode="C" horiz-adv-x="560" d="M503 28q-34 -15 -74.5 -24t-82.5 -9q-67 0 -120 14.5t-90 46t-56.5 80.5t-19.5 118q0 57 21 107t58.5 87t89.5 58.5t114 21.5q24 0 44 -1.5t38.5 -5t37 -9.5t39.5 -15v-123q-2 0 -9 -0.5t-15 -0.5t-15.5 0.5t-10.5 0.5q-15 41 -41.5 63.5t-78.5 22.5q-37 0 -68 -11 t-53 -34.5t-34.5 -61t-12.5 -90.5q0 -46 15 -81t41.5 -58.5t61.5 -35.5t76 -12q35 0 64.5 4t63.5 12l17 -64v0z" />
<glyph unicode="D" horiz-adv-x="667" d="M607 271q0 -68 -22.5 -118.5t-62.5 -84.5t-96.5 -51t-123.5 -17h-238l-3.5 23.5t-0.5 24.5l41 9q14 5 23 14t9 30l2 103v226q0 21 -18 28l-51 18q0 9 0.5 20t4.5 23h227q64 0 120.5 -10t98.5 -37.5t66 -76t24 -124.5zM496 257q0 100 -50.5 147.5t-150.5 47.5h-59v-249 l3 -137h72q94 0 139.5 45t45.5 146z" />
<glyph unicode="E" d="M492 0h-428q-6 25 -4 48l39 10q14 3 24.5 10t10.5 23l2 113v226q0 20 -14 26l-56 20q0 10 0.5 20.5t5.5 22.5h407v-128q-12 -3 -27.5 -3t-26.5 1q-7 35 -19 47.5t-35 13.5l-135 3v-161l212 4v-73l-212 6v-26l2 -137l126 1q38 2 61 22t34 52l50 -9z" />
<glyph unicode="F" horiz-adv-x="522" d="M474 385q-25 -4 -48 0q-7 29 -21.5 45t-43.5 16l-132 7v-182l217 6v-75l-217 5v-12l3 -110q0 -13 14 -16l86 -17q0 -12 -1.5 -27t-4.5 -25h-262l-3.5 23t-0.5 23l34 8q14 5 24 13t11 28l2 108v228q0 19 -15 25l-54 19q-1 9 -0.5 20.5t4.5 23.5h408v-134v0z" />
<glyph unicode="G" horiz-adv-x="599" d="M346 -5q-67 0 -120 15t-90 46.5t-56.5 80.5t-19.5 117q0 57 21.5 107t60 87t90 58.5t111.5 21.5q66 0 108.5 -11t72.5 -24v-123h-48q-15 42 -51 66t-93 24q-77 0 -122.5 -46.5t-45.5 -152.5q0 -49 15.5 -84.5t42.5 -59t62.5 -34.5t74.5 -11q19 0 37.5 3t30.5 7v149h99 v-199q-18 -7 -41.5 -13.5t-47.5 -12t-48 -8.5t-43 -3z" />
<glyph unicode="H" horiz-adv-x="731" d="M670 47q0 -9 -1.5 -23.5t-4.5 -23.5h-232q-5 24 -3 45l37 12q16 6 22.5 21t6.5 29l2 96v24h-267v-24l3 -118q0 -18 16 -21l62 -17q0 -9 -1 -23.5t-4 -23.5h-241q-2 11 -3.5 21.5t-0.5 21.5l44 16q12 5 18.5 18t6.5 27l1 99v224q0 19 -7 28t-20 11l-42 12q0 8 1 20t3 21 h222q2 -11 3.5 -22t0.5 -21l-44 -11q-11 -3 -14.5 -8t-3.5 -18v-145h267v128q0 13 -7 26t-18 17l-39 13v20.5t3 20.5h217q1 -12 1 -22t-2 -21l-40 -11q-10 -2 -13 -6t-3 -16v-240l2 -115q0 -15 2.5 -19t7.5 -6l62 -16v0z" />
<glyph unicode="I" horiz-adv-x="360" d="M44 0q-3 21 -3 46l51 17q14 4 22 14t9 31l2 121v189q-1 11 -6.5 20.5t-19.5 15.5l-49 19q-1 11 0 22.5t3 23.5h241q3 -12 3.5 -27.5t-0.5 -24.5l-52 -12q-11 -3 -15 -14t-4 -22v-187l2 -143q0 -20 17 -23l66 -15q0 -8 -1.5 -25.5t-5.5 -25.5h-260v0z" />
<glyph unicode="J" horiz-adv-x="358" d="M256 464q-14 -4 -18.5 -10t-4.5 -18v-368q0 -41 -14 -72t-37.5 -55t-55 -43t-66.5 -35l-34 60q31 18 51.5 35.5t33 38.5t17.5 47.5t5 63.5v308q0 14 -8 28t-22 19q-9 3 -17 6q-7 2 -13 4t-7 3q0 10 0.5 21t3.5 22h223q2 -12 2.5 -23.5t-0.5 -22.5z" />
<glyph unicode="K" horiz-adv-x="623" d="M590 -14q-8 0 -27 1.5t-41.5 7t-46.5 16t-42 29.5l-200 214v-47l1 -119q1 -20 13 -23l47 -16q0 -9 -0.5 -24t-4.5 -25h-225q-2 11 -3.5 22t-0.5 23l37 11q14 4 24 13.5t11 30.5l1 103v220q0 17 -7 25.5t-18 13.5l-40 14q-1 8 -1 19.5t4 23.5h219q2 -13 3 -23t-1 -21 l-37 -13q-12 -5 -17 -17t-5 -25v-146l168 151q11 11 11 21q0 11 -8 14l-36 13q0 11 1 22.5t4 23.5h194v-41l-236 -195l155 -154q33 -33 62 -54t53 -33l-11 -56v0z" />
<glyph unicode="L" horiz-adv-x="520" d="M482 0h-419q-4 24 -3 47l30 8q17 4 28 12t12 28l2 107v221q0 31 -26 39l-40 14q0 10 0.5 20.5t3.5 22.5h221q2 -13 2.5 -24t-0.5 -23q-2 0 -8 -1.5t-13.5 -3t-14.5 -3.5t-11 -3q-14 -5 -14 -23v-235l3 -137l130 3q16 1 30 8.5t24.5 19t18 25t12.5 27.5l52 -7z" />
<glyph unicode="M" horiz-adv-x="849" d="M803 45q0 -9 -1 -22t-5 -23h-218q-4 23 -3 44l32 9q16 5 21.5 23t2.5 41l-30 234l-2 31h-2l-146 -377l-79 -22l-140 405h-2l-2 -31l-44 -271q-4 -17 6 -19l69 -21q0 -9 -1 -22.5t-4 -23.5h-205q-3 24 -3 43l31 15q29 13 35 50l59 320q3 21 -13 28l-55 19q0 8 0.5 20.5 t3.5 23.5h179l107 -302l29 -98h4l33 101l117 299h171q2 -12 2.5 -22t-0.5 -21l-39 -12q-14 -5 -19.5 -16t-2.5 -32l53 -327q3 -19 19 -26l42 -18v0z" />
<glyph unicode="N" horiz-adv-x="710" d="M612 462q-11 -4 -17.5 -16t-6.5 -26v-416l-77 -24l-308 415h-4l8 -51v-143l3 -114q0 -11 1.5 -14.5t11.5 -6.5l67 -20q0 -9 -1 -22.5t-5 -23.5h-221q-2 12 -3 22.5t0 21.5l45 14q14 4 21.5 18t7.5 31l3 94v226q0 14 -7.5 23t-19.5 14l-39 14q0 11 -0.5 20.5t3.5 20.5h165 l282 -374h2l-6 73v201q0 13 -7.5 25t-17.5 16l-49 18q0 8 1 19t4 22h207q2 -12 3 -20.5t0 -19.5z" />
<glyph unicode="O" horiz-adv-x="671" d="M603 279q0 -57 -19 -109.5t-55 -92.5t-88 -63.5t-118 -23.5q-128 0 -196.5 64.5t-68.5 185.5q0 60 20.5 112.5t58 92t89.5 62.5t115 23q66 0 115 -18.5t81.5 -51.5t49 -79.5t16.5 -101.5zM491 265q0 40 -8.5 75.5t-27.5 62.5t-49.5 42.5t-73.5 15.5q-45 0 -76 -17.5 t-49.5 -46t-27 -65.5t-8.5 -76q0 -38 8 -73t26.5 -62t48 -43.5t73.5 -16.5q47 0 78.5 17t50.5 45.5t27 65t8 76.5z" />
<glyph unicode="P" horiz-adv-x="556" d="M521 360q0 -37 -14 -68.5t-41.5 -54t-68 -35.5t-93.5 -13h-29v60l15 1q27 1 49.5 6t39 16t26 30.5t9.5 49.5q0 42 -17.5 63t-44.5 29.5t-59.5 8.5t-62.5 1v-253l3 -115q0 -16 10 -18l80 -20q0 -8 -1 -23t-4 -25h-255q-2 12 -3 23t0 23l39 11q29 9 29 37l3 107v231 q0 18 -13 23l-57 20q-1 7 -0.5 19.5t5.5 24.5h274q40 0 73 -9.5t57 -29t37.5 -49.5t13.5 -71z" />
<glyph unicode="Q" horiz-adv-x="671" d="M603 279q0 -42 -10.5 -82t-30.5 -74t-49.5 -61t-66.5 -45l117 -73q51 -33 104 -33q5 0 12 0.5t19 2t29 5l42 8.5l13 -57q-47 -28 -83 -38.5t-59 -10.5q-29 0 -57 11t-58 33l-164 128q-18 -3 -38 -3q-128 0 -196.5 64.5t-68.5 185.5q0 60 20.5 112.5t58 92t89.5 62.5 t115 23q66 0 115 -18.5t81.5 -51.5t49 -79.5t16.5 -101.5zM491 265q0 40 -8.5 75.5t-27.5 62.5t-49.5 42.5t-73.5 15.5q-45 0 -76 -17.5t-49.5 -46t-27 -65.5t-8.5 -76q0 -38 8 -73t26.5 -62t48 -43.5t73.5 -16.5q47 0 78.5 17t50.5 45.5t27 65t8 76.5z" />
<glyph unicode="R" horiz-adv-x="623" d="M614 -17q-19 0 -42.5 2t-48.5 8.5t-49.5 19t-45.5 33.5q-32 30 -60.5 76t-51.5 89q-5 -1 -12.5 -1h-15.5h-59l2 -130q1 -9 2.5 -11.5t6.5 -2.5l60 -16q0 -9 -1 -24.5t-4 -25.5h-229q-2 12 -2.5 23t0.5 22l30 9q14 5 22.5 13.5t10.5 28.5l2 105v236q-1 13 -12 18l-57 20 q-1 7 0 19.5t6 24.5h254q39 0 74 -7.5t61 -25t41.5 -46t15.5 -69.5q0 -42 -23 -80.5t-68 -56.5q7 -13 17.5 -29.5t22.5 -33.5l24.5 -33.5t24.5 -28.5q32 -32 56 -49.5t57 -25.5zM403 365q0 44 -28 65.5t-88 22.5l-58 1v-183h64q58 1 84 24.5t26 69.5z" />
<glyph unicode="S" horiz-adv-x="503" d="M451 147q0 -42 -20 -72.5t-51 -50t-70 -28.5t-76 -9q-45 0 -93.5 10t-88.5 30l10 133h52q4 -27 17.5 -48t32.5 -35t42 -21t47 -7q43 0 68.5 18.5t25.5 58.5q0 18 -11 30.5t-29 23t-41 19.5l-48 19q-27 10 -53 22.5t-46.5 30.5t-33 42t-12.5 58q0 36 17 65t44.5 50 t62 32.5t68.5 11.5q20 0 42.5 -1.5t45 -5t43 -9.5t36.5 -14l1 -124h-48q-11 42 -44 65t-74 23t-68.5 -16.5t-27.5 -55.5q0 -15 10.5 -26t28.5 -20.5t41 -18.5l47 -18q28 -12 55 -26t49 -32.5t35.5 -44t13.5 -59.5z" />
<glyph unicode="T" horiz-adv-x="536" d="M134 0q-5 22 -3 49l57 16q14 2 20 14.5t6 32.5l2 106v231h-93q-29 -1 -42 -23t-20 -56q-8 -1 -23 -0.5t-26 2.5v147h511v-147q-11 -2 -24 -2.5t-24 0.5q-8 35 -22.5 56.5t-46.5 22.5h-87v-231l3 -128q1 -14 3 -19t9 -6l72 -16q0 -11 -1 -24.5t-5 -24.5h-266v0z" />
<glyph unicode="U" horiz-adv-x="662" d="M576 459q-6 -2 -11 -6t-5 -16v-239q0 -63 -22 -103t-56 -63.5t-73.5 -32.5t-74.5 -9q-38 0 -78.5 7.5t-75 28t-56.5 57.5t-22 96v248q0 26 -23 34l-42 13q0 8 1 21t4 24h226q2 -13 2.5 -26t-0.5 -24l-47 -9q-15 -3 -15 -20v-253q0 -38 12.5 -62.5t32.5 -39t43.5 -20.5 t46.5 -6q25 0 48.5 7t41 23.5t28 44.5t10.5 70v217q0 32 -28 40q-12 3 -21 6q-8 2 -14.5 4t-8.5 3q0 11 -1 22t4 23h213q2 -13 2 -24.5v-22.5z" />
<glyph unicode="V" horiz-adv-x="595" d="M550 462q-10 -6 -18 -18.5t-15 -27.5l-192 -413l-75 -20l-176 437q-8 20 -12 27.5t-15 13.5q-6 3 -11 6q-5 2 -10.5 5t-10.5 5q0 10 1 20t4 22h218q6 -25 4 -49q-2 -1 -8.5 -2.5l-14.5 -3.5q-9 -2 -19 -4q-13 -3 -17 -10.5t1 -22.5l118 -307l130 285q9 17 3 32t-18 21 l-39 17q0 10 0.5 20.5t5.5 23.5h193q2 -14 2.5 -23t-0.5 -20z" />
<glyph unicode="W" horiz-adv-x="842" d="M802 465q-22 -12 -33 -43l-154 -420l-75 -20l-116 308l-140 -287l-72 -19l-140 446q-8 24 -27 34l-30 15q0 10 0.5 19t4.5 21h215q2 -13 3 -22.5t-1 -21.5l-38 -13q-24 -9 -13 -48l84 -294l120 254l-20 62q-2 5 -5.5 10.5t-6.5 7.5q0 1 -5.5 4.5l-12 8l-12 8t-6.5 4.5 q0 12 -0.5 20t2.5 20h211q4 -20 4 -43l-37 -13q-12 -5 -15 -18t2 -30l101 -294l97 287q15 42 -13 53l-37 15v20.5t5 22.5h184q2 -12 3 -21t0 -20z" />
<glyph unicode="X" horiz-adv-x="598" d="M569 43q0 -8 -1 -20.5t-4 -22.5h-213q-2 12 -3.5 22t0.5 21l32 20q14 7 0 26l-92 117l-93 -112q-9 -9 -7 -19t9 -12l42 -20q0 -8 -1 -20t-3 -23h-204q-4 23 -3 43l28 15q17 9 31.5 24t28.5 31l130 145l-131 161q-14 17 -32 30.5t-36 25.5q0 8 1 20.5t3 23.5h200 l3.5 -23.5t0.5 -20.5l-27 -10q-8 -4 -10.5 -12t5.5 -19l85 -104l87 100q8 9 6 18t-11 14l-28 14v21.5t3 21.5h187q2 -12 3 -22t0 -22q-23 -8 -45 -23t-37 -33l-122 -142l139 -168q14 -17 24.5 -28t26.5 -19q1 -2 12.5 -9t15.5 -10z" />
<glyph unicode="Y" horiz-adv-x="570" d="M551 476q-20 -9 -32.5 -18t-23.5 -25l-163 -235l1 -106q0 -24 17 -29l60 -16q0 -11 -1 -24t-4 -23h-244q-3 11 -4 23t-1 25l50 13q10 3 17 11.5t7 22.5l2 100l-160 231q-13 19 -24.5 28.5l-28.5 23.5v20t3 21h206q3 -13 4 -23.5t1 -21.5q-2 -1 -8 -3.5t-13 -4.5l-18 -6 q-10 -4 -11.5 -16t7.5 -28l106 -159l100 141q8 9 10.5 17.5t2.5 15.5q0 16 -14 24l-42 20v21t4 23h189q4 -12 4.5 -21.5t0.5 -21.5z" />
<glyph unicode="Z" horiz-adv-x="525" d="M465 0h-405l-18 53l287 401l-159 -3q-23 -4 -35.5 -21.5t-19.5 -52.5q-27 -2 -53 3v139h394l12 -43l-290 -407l171 4q32 5 52 27.5t30 51.5l52 -9z" />
<glyph unicode="&#xc0;" horiz-adv-x="596" d="M217 795q43 -48 87 -87.5t98 -77.5l-30 -46q-57 30 -110 66t-107 78zM579 42q0 -10 -1 -20.5t-4 -21.5h-220q-3 13 -4 23t0 24l47 16q14 5 16.5 13.5t-1.5 18.5l-37 100h-173l-37 -88q-7 -17 -2.5 -29.5t18.5 -16.5l58 -15q0 -10 -1.5 -22.5t-4.5 -23.5h-203q-2 13 -3 21 t0 19l24 15q11 8 17.5 19.5l14.5 26.5l186 413l84 19l172 -435q8 -17 15 -27.5t18 -16.5zM324 345l-24 87h-6l-30 -86l-36 -91h126z" />
<glyph unicode="&#xc6;" horiz-adv-x="815" d="M9 0q-3 13 -3.5 21.5t0.5 19.5l20 16l19 19t21 25l282 418h376v-128q-12 -3 -27 -3t-26 1q-8 35 -19.5 47.5t-34.5 13.5l-136 3v-161l212 4v-73l-212 6v-26l3 -137l125 1q38 2 61.5 22t34.5 52l49 -9l-17 -132h-428q-6 25 -4 48q14 3 27 5.5t23.5 7t17 11.5t6.5 19l2 97 v13h-165l-65 -95q-9 -14 -2 -27.5t18 -18.5l44 -17q0 -10 -1 -21t-5 -22h-196zM381 458l-40 -69l-84 -128h124v197z" />
<glyph unicode="&#xc7;" horiz-adv-x="560" d="M434 -160q0 -21 -11 -42t-29.5 -37.5t-42 -26.5t-48.5 -10q-23 0 -47 7t-47 23l36 63q19 -13 42.5 -20t44.5 -7q17 0 29 6.5t12 19.5q0 15 -10.5 25t-28.5 17t-42 12t-51 10l50 118q-110 10 -170.5 71.5t-60.5 184.5q0 57 21 107t58.5 87t89.5 58.5t114 21.5 q24 0 44 -1.5t38.5 -5t37 -9.5t39.5 -15v-123q-2 0 -9 -0.5t-15 -0.5t-15.5 0.5t-10.5 0.5q-15 41 -41.5 63.5t-78.5 22.5q-37 0 -68 -11t-53 -34.5t-34.5 -61t-12.5 -90.5q0 -46 15 -81t41.5 -58.5t61.5 -35.5t76 -12q35 0 64.5 4t63.5 12l17 -64q-33 -14 -71.5 -23 t-80.5 -10l-32 -60q58 -13 86.5 -33t28.5 -62z" />
<glyph unicode="&#xc8;" d="M497 0h-429q-4 27 -3 48l39 10q14 3 24.5 10t10.5 23l2 113v226q0 21 -15 26l-55 20q0 10 0.5 20.5t5.5 22.5h407v-128q-13 -3 -28.5 -3t-26.5 1q-6 35 -18 47.5t-35 13.5l-136 3v-161l213 4v-73l-213 6v-26l3 -137l126 1q38 2 61 22t34 52l50 -9zM189 795 q43 -48 87 -87.5t98 -77.5l-29 -46q-57 30 -110.5 66t-107.5 78z" />
<glyph unicode="&#xc9;" d="M462 728q-54 -42 -107.5 -78t-110.5 -66l-29 46q54 38 98 77.5t87 87.5zM497 0h-429q-4 27 -3 48l39 10q14 3 24.5 10t10.5 23l2 113v226q0 21 -15 26l-55 20q0 10 0.5 20.5t5.5 22.5h407v-128q-13 -3 -28.5 -3t-26.5 1q-6 35 -18 47.5t-35 13.5l-136 3v-161l213 4v-73 l-213 6v-26l3 -137l126 1q38 2 61 22t34 52l50 -9z" />
<glyph unicode="&#xca;" d="M118 626q52 42 93 83l82 86l36.5 -41.5l42 -44.5t43.5 -42t40 -34l-43 -46q-36 22 -70 49.5l-61 50.5q-22 -20 -55.5 -46t-73.5 -54zM497 0h-429q-4 27 -3 48l39 10q14 3 24.5 10t10.5 23l2 113v226q0 21 -15 26l-55 20q0 10 0.5 20.5t5.5 22.5h407v-128q-13 -3 -28.5 -3 t-26.5 1q-6 35 -18 47.5t-35 13.5l-136 3v-161l213 4v-73l-213 6v-26l3 -137l126 1q38 2 61 22t34 52l50 -9z" />
<glyph unicode="&#xcb;" d="M177 617q-6 0 -16.5 8t-21 19t-18.5 21t-8 15q0 6 8 16.5t18.5 21t21.5 18.5t16 8t15.5 -8t21.5 -19t19 -21.5t8 -15.5q0 -3 -8 -13.5t-18.5 -21.5t-21 -19.5t-16.5 -8.5zM402 617q-5 0 -15.5 8t-21.5 19t-19 21t-8 15q0 6 8 16.5t19 21t21.5 18.5t15.5 8t15.5 -8 t21.5 -19t19 -21.5t8 -15.5q0 -3 -8 -13.5t-18.5 -21.5t-21 -19.5t-16.5 -8.5zM497 0h-429q-4 27 -3 48l39 10q14 3 24.5 10t10.5 23l2 113v226q0 21 -15 26l-55 20q0 10 0.5 20.5t5.5 22.5h407v-128q-13 -3 -28.5 -3t-26.5 1q-6 35 -18 47.5t-35 13.5l-136 3v-161l213 4 v-73l-213 6v-26l3 -137l126 1q38 2 61 22t34 52l50 -9z" />
<glyph unicode="&#xcf;" horiz-adv-x="360" d="M61 617q-5 0 -16 8t-21.5 19t-18.5 21t-8 15q0 6 8 16.5t18.5 21t21.5 18.5t16 8t15.5 -8t21.5 -19t19 -21.5t8 -15.5q0 -3 -8 -13.5t-18.5 -21.5t-21 -19.5t-16.5 -8.5zM286 617q-5 0 -15.5 8t-21.5 19t-19 21t-8 15q0 6 8.5 16.5t19 21t21 18.5t15.5 8t15.5 -8 t21.5 -19t19.5 -21.5t8.5 -15.5q0 -3 -8 -13.5t-19 -21.5t-21.5 -19.5t-16.5 -8.5zM48 0q-1 11 -1.5 22.5t-0.5 23.5l51 17q14 4 21.5 14t8.5 31l3 121v189q-1 11 -6.5 20.5t-19.5 15.5l-49 19q-1 11 0 22.5t3 23.5h241q3 -12 3.5 -27.5t-0.5 -24.5l-52 -12q-11 -3 -15 -14 t-4 -22v-187l2 -143q0 -20 17 -23l65 -15q0 -8 -1.5 -25.5t-4.5 -25.5h-261z" />
<glyph unicode="&#xd1;" horiz-adv-x="710" d="M548 689l-19 -21.5t-23.5 -21.5t-30 -16.5t-38.5 -6.5q-15 0 -36 6t-42.5 13.5t-41 13.5t-31.5 6q-21 0 -37.5 -5t-32.5 -19l-27 33l20 22t24.5 22.5t30.5 17.5t38 7q18 0 41 -6.5t45 -14l40.5 -13.5t28.5 -6q15 0 27.5 3t20.5 7q10 4 17 10zM617 462q-11 -4 -17.5 -16 t-6.5 -26v-416l-77 -24l-308 415h-4l8 -51v-143l3 -114q0 -11 1.5 -14.5t11.5 -6.5l66 -20q0 -9 -0.5 -22.5t-4.5 -23.5h-222q-1 12 -2 22.5t0 21.5l45 14q13 4 21 18t8 31l3 94v226q0 14 -7.5 23t-19.5 14l-39 14q0 11 -0.5 20.5t3.5 20.5h165l281 -374h3l-6 73v201 q0 13 -7.5 25t-17.5 16l-50 18q0 8 1 19t5 22h207q2 -12 3 -20.5t0 -19.5z" />
<glyph unicode="&#xd4;" horiz-adv-x="671" d="M165 626q53 42 94 83t81 86l36.5 -41.5l42.5 -44.5l43.5 -42t40.5 -34l-43 -46q-37 22 -70.5 49.5l-60.5 50.5q-23 -20 -56 -46t-74 -54zM608 279q0 -57 -19 -109.5t-55 -92.5t-88 -63.5t-118 -23.5q-128 0 -196.5 64.5t-68.5 185.5q0 60 20.5 112.5t58 92t89.5 62.5 t115 23q66 0 115 -18.5t81.5 -51.5t49 -79.5t16.5 -101.5zM496 265q0 40 -8.5 75.5t-27.5 62.5t-49.5 42.5t-73.5 15.5q-45 0 -76 -17.5t-49.5 -46t-27 -65.5t-8.5 -76q0 -38 8 -73t26.5 -62t48 -43.5t73.5 -16.5q47 0 78.5 17t50.5 45.5t27 65t8 76.5z" />
<glyph unicode="&#xd6;" horiz-adv-x="671" d="M219 617q-5 0 -15.5 8t-21 19t-18.5 21t-8 15q0 6 8 16.5t18.5 21t21 18.5t15.5 8t16 -8t22 -19t19 -21.5t8 -15.5q0 -3 -8 -13.5t-18.5 -21.5t-21.5 -19.5t-17 -8.5zM445 617q-5 0 -16 8t-21.5 19t-18.5 21t-8 15q0 6 8 16.5t19 21t21.5 18.5t15.5 8t15.5 -8t21.5 -19 t19 -21.5t8 -15.5q0 -3 -8 -13.5t-18.5 -21.5t-21 -19.5t-16.5 -8.5zM608 279q0 -57 -19 -109.5t-55 -92.5t-88 -63.5t-118 -23.5q-128 0 -196.5 64.5t-68.5 185.5q0 60 20.5 112.5t58 92t89.5 62.5t115 23q66 0 115 -18.5t81.5 -51.5t49 -79.5t16.5 -101.5zM496 265 q0 40 -8.5 75.5t-27.5 62.5t-49.5 42.5t-73.5 15.5q-45 0 -76 -17.5t-49.5 -46t-27 -65.5t-8.5 -76q0 -38 8 -73t26.5 -62t48 -43.5t73.5 -16.5q47 0 78.5 17t50.5 45.5t27 65t8 76.5z" />
<glyph unicode="&#x152;" horiz-adv-x="902" d="M327 -9q-128 0 -197.5 65t-69.5 183q0 61 21 114t58.5 91t90.5 60t116 22q68 0 110 -23q1 4 1 8q0 8 1 8h350v-128q-12 -3 -27.5 -3t-26.5 1q-7 35 -19 47.5t-35 13.5l-136 3v-161l214 4v-73l-214 6v-26l4 -137l125 1q38 2 61 22t34 52l50 -9l-17 -132h-369l-3 26 q-24 -17 -54 -26t-68 -9zM332 63q50 0 82 17t51 48v266q-19 30 -50.5 46.5t-78.5 16.5q-45 0 -76 -15.5t-50.5 -43t-28 -64t-8.5 -78.5q0 -41 8.5 -76t27 -61t49 -41t74.5 -15z" />
</font>
</defs>
</svg>
